<svg width="218" height="180" viewBox="0 0 218 180" fill="none" xmlns="http://www.w3.org/2000/svg">
<path d="M49.2905 113.947L49.6818 113.027L49.2905 113.947ZM103.257 94.9342L104.227 95.1755L103.257 94.9342ZM57.8775 91.9113L58.7528 92.3949L57.8775 91.9113ZM217.892 154.266L206.352 154.647L212.452 164.451L217.892 154.266ZM5.48621 0.636912C4.95222 2.00724 4.46122 3.40731 4.01271 4.83383L5.92063 5.43369C6.35618 4.04838 6.83246 2.69049 7.34972 1.36309L5.48621 0.636912ZM0.698179 22.2502C0.459967 25.161 0.359175 28.1206 0.393174 31.1092L2.39304 31.0864C2.35973 28.1577 2.45854 25.2602 2.69151 22.4133L0.698179 22.2502ZM2.10022 48.7193C2.62425 51.612 3.26699 54.4969 4.0264 57.3567L5.95941 56.8434C5.21376 54.0355 4.58268 51.2029 4.06819 48.3628L2.10022 48.7193ZM9.94489 74.0269C11.1656 76.7265 12.4999 79.3669 13.9461 81.9304L15.688 80.9477C14.2719 78.4374 12.9642 75.8501 11.7673 73.2029L9.94489 74.0269ZM24.1142 96.4378C26.0654 98.6847 28.1318 100.812 30.3114 102.801L31.6595 101.324C29.5395 99.3894 27.527 97.3175 25.6243 95.1265L24.1142 96.4378ZM44.8625 112.976C46.1808 113.652 47.5265 114.284 48.8991 114.867L49.6818 113.027C48.3539 112.462 47.0516 111.851 45.7754 111.197L44.8625 112.976ZM48.8991 114.867C50.0163 115.343 51.1506 115.766 52.298 116.141L52.9183 114.239C51.8247 113.883 50.7446 113.479 49.6818 113.027L48.8991 114.867ZM66.5551 118.356C68.9818 118.357 71.3958 118.177 73.7627 117.83L73.4727 115.852C71.2006 116.185 68.8837 116.357 66.5558 116.356L66.5551 118.356ZM87.5639 113.634C89.7901 112.551 91.878 111.296 93.7804 109.884L92.5886 108.278C90.7925 109.611 88.8117 110.803 86.689 111.835L87.5639 113.634ZM103.035 98.6841C103.527 97.5519 103.927 96.3813 104.227 95.1755L102.286 94.6929C102.014 95.7882 101.65 96.8539 101.201 97.8875L103.035 98.6841ZM104.227 95.1755C104.567 93.81 104.781 92.476 104.88 91.1799L102.885 91.0288C102.796 92.2087 102.6 93.4318 102.286 94.6929L104.227 95.1755ZM99.5026 76.2742C97.5682 74.3937 95.2104 72.9506 92.5776 72.0305L91.9178 73.9185C94.2863 74.7463 96.3908 76.0384 98.1084 77.7083L99.5026 76.2742ZM76.7127 72.5635C74.3661 73.4624 72.0128 74.7321 69.7099 76.4043L70.8851 78.0227C73.0528 76.4485 75.2524 75.2646 77.4282 74.4311L76.7127 72.5635ZM59.0282 88.0327C58.3347 89.1084 57.6586 90.2396 57.0022 91.4277L58.7528 92.3949C59.3879 91.2453 60.0409 90.153 60.7092 89.1164L59.0282 88.0327ZM57.0022 91.4277C56.3216 92.6596 55.7386 93.9446 55.2509 95.2754L57.1288 95.9636C57.5824 94.7259 58.1232 93.5344 58.7528 92.3949L57.0022 91.4277ZM53.6503 111.805C53.9733 114.466 54.5413 117.185 55.3424 119.93L57.2623 119.369C56.4893 116.721 55.9447 114.109 55.6357 111.564L53.6503 111.805ZM62.0002 135.038C63.373 137.361 64.9006 139.663 66.5767 141.925L68.1836 140.734C66.5478 138.526 65.0587 136.282 63.7219 134.02L62.0002 135.038ZM77.585 154.15C79.5767 155.988 81.6799 157.766 83.8903 159.468L85.1107 157.884C82.9475 156.217 80.8897 154.478 78.9415 152.68L77.585 154.15ZM97.74 168.327C100.14 169.583 102.625 170.754 105.191 171.828L105.963 169.982C103.451 168.931 101.018 167.785 98.6677 166.555L97.74 168.327ZM120.86 176.863C123.497 177.469 126.197 177.976 128.958 178.374L129.243 176.394C126.538 176.005 123.892 175.508 121.309 174.913L120.86 176.863ZM145.369 179.405C148.062 179.362 150.801 179.217 153.582 178.964L153.401 176.972C150.669 177.221 147.98 177.363 145.337 177.405L145.369 179.405ZM169.776 176.332C172.385 175.725 175.024 175.023 177.692 174.222L177.117 172.307C174.488 173.096 171.89 173.787 169.323 174.384L169.776 176.332ZM193.083 168.612C195.552 167.554 198.043 166.412 200.553 165.181L199.673 163.385C197.192 164.601 194.733 165.73 192.295 166.774L193.083 168.612Z" fill="#070726"/>
</svg>
