<svg width="96" height="48" viewBox="0 0 96 48" fill="none" xmlns="http://www.w3.org/2000/svg">
<path d="M12.672 18.3824L7.336 21.7649L12.672 25.1473L7.336 28.5297L2 25.129L7.336 21.7466L2 18.3824L7.336 15L12.672 18.3824ZM7.3084 29.6176L12.6444 26.2351L17.9804 29.6176L12.6444 33L7.3084 29.6176ZM12.672 25.129L18.008 21.7466L12.672 18.3824L17.9804 15L23.3164 18.3824L17.9804 21.7649L23.3164 25.1473L17.9804 28.5297L12.672 25.129Z" fill="#B9B8C8"/>
<path d="M27.502 18.3824H31.8168C34.5676 18.3824 36.84 19.9639 36.84 23.5749V24.3336C36.84 27.972 34.7148 29.6084 31.8996 29.6084H27.502V18.3824ZM29.9124 20.421V27.5607H31.7616C33.3256 27.5607 34.3744 26.5459 34.3744 24.2879V23.6937C34.3744 21.4357 33.2704 20.421 31.6788 20.421H29.9124V20.421ZM38.1188 20.5307H40.0508L40.3636 22.6424C40.7316 21.2072 41.67 20.4393 43.372 20.4393H43.97V22.8618H42.9764C41.0168 22.8618 40.5384 23.5383 40.5384 25.4581V29.6358H38.1556V20.5307H38.1188ZM44.4484 25.2661V25.0101C44.4484 21.9659 46.408 20.3022 49.076 20.3022C51.7992 20.3022 53.7036 21.9659 53.7036 25.0101V25.2661C53.7036 28.2554 51.8544 29.8644 49.076 29.8644C46.1228 29.8369 44.4484 28.2646 44.4484 25.2661ZM51.2656 25.2387V25.0101C51.2656 23.3189 50.41 22.3042 49.0484 22.3042C47.7144 22.3042 46.8312 23.2366 46.8312 25.0101V25.2387C46.8312 26.875 47.6868 27.8075 49.0484 27.8075C50.41 27.7801 51.2656 26.875 51.2656 25.2387ZM54.9547 20.5307H56.942L57.172 22.2493C57.6504 21.0975 58.6716 20.3022 60.1804 20.3022C62.508 20.3022 64.0444 21.9659 64.0444 25.0467V25.3027C64.0444 28.292 62.3424 29.8735 60.1804 29.8735C58.736 29.8735 57.7423 29.2244 57.2547 28.1823V32.7806H54.9272L54.9547 20.5307ZM61.6247 25.2387V25.0375C61.6247 23.2275 60.6864 22.3316 59.4352 22.3316C58.1012 22.3316 57.218 23.3463 57.218 25.0375V25.2112C57.218 26.8202 58.0736 27.8349 59.4076 27.8349C60.7784 27.8075 61.6247 26.939 61.6247 25.2387ZM67.568 27.9537L67.3656 29.6175H65.3232V17.4865H67.6507V22.1396C68.1659 20.9512 69.1872 20.3022 70.6316 20.3022C72.8212 20.3296 74.4404 21.8288 74.4404 24.8456V25.129C74.4404 28.1457 72.904 29.8735 70.5764 29.8735C69.04 29.8369 68.0464 29.133 67.568 27.9537ZM71.9932 25.129V24.9004C71.9932 23.2366 71.0824 22.3042 69.8036 22.3042C68.4972 22.3042 67.5864 23.3463 67.5864 24.9278V25.129C67.5864 26.8202 68.4696 27.8075 69.776 27.8075C71.1744 27.8075 71.9932 26.939 71.9932 25.129ZM75.4616 25.2661V25.0101C75.4616 21.9659 77.4212 20.3022 80.0892 20.3022C82.8124 20.3022 84.7167 21.9659 84.7167 25.0101V25.2661C84.7167 28.2554 82.84 29.8644 80.0892 29.8644C77.136 29.8369 75.4616 28.2646 75.4616 25.2661ZM82.2972 25.2387V25.0101C82.2972 23.3189 81.4416 22.3042 80.08 22.3042C78.746 22.3042 77.8627 23.2366 77.8627 25.0101V25.2387C77.8627 26.875 78.7184 27.8075 80.08 27.8075C81.4508 27.7801 82.2972 26.875 82.2972 25.2387ZM87.8356 24.9004L84.6247 20.5307H87.3756L89.2247 23.2641L91.1016 20.5307H93.8247L90.568 24.873L93.9996 29.6175H91.304L89.2064 26.6008L87.164 29.6175H84.3487L87.8356 24.9004Z" fill="#B9B8C8"/>
</svg>
