<svg width="49" height="48" viewBox="0 0 49 48" fill="none" xmlns="http://www.w3.org/2000/svg">
<path fill-rule="evenodd" clip-rule="evenodd" d="M41.333 8H7.33301V34H41.333V8ZM6.33301 7V35H42.333V7H6.33301Z" fill="#8181EA"/>
<path d="M20.333 34H28.333V40H20.333V34Z" fill="#8181EA"/>
<path d="M16.333 40H32.333V41H16.333V40Z" fill="#8181EA"/>
<path fill-rule="evenodd" clip-rule="evenodd" d="M16.833 13.0892L18.5181 14.1615L17.9812 15.0052L17.7767 14.875H16.833V13.0892ZM20.3514 15.3282L22.1848 16.4948L21.6479 17.3385L19.8146 16.1718L20.3514 15.3282ZM16.833 18.375V16.625H17.833V18.375H16.833ZM24.0181 17.6615L25.8514 18.8282L25.3146 19.6718L23.4812 18.5052L24.0181 17.6615ZM27.6848 19.9948L29.2643 21L27.6848 22.0052L27.1479 21.1615L27.4017 21L27.1479 20.8385L27.6848 19.9948ZM16.833 21.875V20.125H17.833V21.875H16.833ZM25.8514 23.1718L24.0181 24.3385L23.4812 23.4948L25.3146 22.3282L25.8514 23.1718ZM16.833 25.375V23.625H17.833V25.375H16.833ZM22.1848 25.5052L20.3514 26.6718L19.8146 25.8282L21.6479 24.6615L22.1848 25.5052ZM18.5181 27.8385L16.833 28.9108V27.125H17.7767L17.9812 26.9948L18.5181 27.8385Z" fill="#8181EA"/>
<path fill-rule="evenodd" clip-rule="evenodd" d="M22.833 14.0657L33.2344 21L22.833 27.9343V14.0657ZM23.833 15.9343V26.0657L31.4316 21L23.833 15.9343Z" fill="#8181EA"/>
</svg>
