<svg width="48" height="48" viewBox="0 0 48 48" fill="none" xmlns="http://www.w3.org/2000/svg">
<path d="M12.9185 16.0059C15.413 11.1366 20.1062 7.688 25.5986 7.09187C24.9926 7.59904 24.4293 8.14698 23.9892 8.70747C23.2623 9.63316 22.7418 10.7668 23.2508 11.8289C23.8236 13.0243 23.289 14.2323 22.7467 15.4575L22.7194 15.5191C22.5888 15.8144 22.4588 16.1151 22.3653 16.4C22.2727 16.6819 22.2024 16.9869 22.218 17.2879C22.2345 17.6063 22.3475 17.9142 22.6021 18.1681C22.8439 18.4094 23.1782 18.5667 23.5755 18.6703C23.7279 18.7101 23.8704 18.7563 24.0149 18.8051L24.0997 18.8339C24.2151 18.8732 24.3371 18.9148 24.4556 18.9501C24.7622 19.0414 25.1048 19.1103 25.5044 19.0521C26.2833 18.9388 27.122 18.365 28.3616 17.0716C28.729 16.6883 29.3146 16.5489 30.0588 16.6713C30.7985 16.7929 31.6097 17.1648 32.2892 17.6737C32.9753 18.1876 33.4663 18.7947 33.6431 19.344C33.729 19.6108 33.7369 19.8498 33.6755 20.0616C33.6147 20.2711 33.4744 20.4949 33.1939 20.7144C32.6577 21.1339 31.7832 21.2478 30.5893 21.1243C29.519 21.0137 28.3109 20.7278 27.0667 20.4333L26.704 20.3475C25.3567 20.0301 23.9728 19.72 22.7872 19.6839C21.842 19.6552 20.9175 19.7977 20.2406 20.3446C20.4134 20.6468 20.5674 20.9603 20.7009 21.2837C21.0928 20.8448 21.7616 20.6532 22.7568 20.6835C23.8244 20.7159 25.1094 20.9992 26.4747 21.3209C26.5978 21.3499 26.7216 21.3792 26.8459 21.4087C28.0746 21.6997 29.3475 22.0013 30.4864 22.119C31.7208 22.2467 32.9463 22.1779 33.8102 21.5019C34.2297 21.1736 34.5081 20.781 34.6359 20.3401C34.7632 19.9013 34.7296 19.4556 34.595 19.0376C34.331 18.2174 33.6654 17.455 32.8886 16.8733C32.1052 16.2866 31.1473 15.8368 30.221 15.6845C29.2993 15.533 28.3222 15.6675 27.6396 16.3797C26.4042 17.6688 25.7725 18.0026 25.3603 18.0626C25.1643 18.0911 24.9812 18.0632 24.7411 17.9917C24.6429 17.9624 24.5447 17.929 24.4318 17.8906L24.3349 17.8577C24.1843 17.8068 24.0151 17.7515 23.8279 17.7027C23.5252 17.6237 23.3782 17.5299 23.3083 17.4602C23.2512 17.4032 23.222 17.3401 23.2166 17.2362C23.2103 17.115 23.2384 16.9464 23.3154 16.7119C23.3914 16.4803 23.5021 16.2218 23.6339 15.9236C23.6584 15.8682 23.6838 15.8115 23.7097 15.7534L23.7102 15.7522C24.2115 14.6286 24.9298 13.0186 24.1526 11.3968C23.9102 10.891 24.0898 10.1986 24.7757 9.32506C25.4107 8.51643 26.3717 7.69888 27.3595 7.00011C35.8017 7.03126 42.76 13.7786 43.5306 22.43C43.1758 22.3359 42.7407 22.2704 42.2654 22.2284C41.2222 22.1362 39.9086 22.151 38.6439 22.2721C37.386 22.3925 36.1344 22.6218 35.2327 22.9781C34.7875 23.154 34.3748 23.3809 34.0994 23.6843C33.7989 24.0153 33.6565 24.4525 33.8311 24.9314C34.0681 25.5815 34.4344 25.988 34.8414 26.2523C35.1768 26.4701 35.535 26.5837 35.7854 26.663C35.8218 26.6746 35.8569 26.6857 35.8883 26.696C36.0266 26.7414 36.1041 26.7728 36.1526 26.8017L36.1603 26.8064L36.1661 26.8102C36.167 26.828 36.1659 26.8623 36.1546 26.9194C36.1314 27.0357 36.0725 27.2102 35.95 27.4657C35.8484 27.6777 35.6884 27.8013 35.42 27.9011C35.2182 27.976 35.0123 28.0206 34.7625 28.0746C34.6253 28.1043 34.4749 28.1369 34.3047 28.1789C33.8632 28.2878 33.3606 28.4502 32.8946 28.7967C32.4217 29.1485 32.02 29.6642 31.7328 30.4273C31.1778 31.9021 30.8495 32.9634 30.6052 33.7533C30.3557 34.5599 30.2083 35.0284 30.0132 35.3848C29.8358 35.7089 29.6118 35.9502 29.1672 36.2482C28.702 36.56 28.0321 36.9103 26.9706 37.4642C26.6646 37.6238 26.4827 37.6469 26.3886 37.637C26.3191 37.6297 26.2619 37.6025 26.1954 37.511C26.1171 37.4031 26.0405 37.2205 25.9801 36.9415C25.9209 36.6681 25.8846 36.3377 25.8635 35.962C25.8351 35.4581 25.8351 34.9154 25.8352 34.3566C25.8352 34.0691 25.8352 33.7771 25.8314 33.4842C25.8206 32.6581 25.7789 31.8103 25.578 31.1817C25.3767 30.5513 25.0608 30.0946 24.6399 29.7726C24.2274 29.457 23.7511 29.2995 23.2788 29.2009C22.9433 29.1309 22.5752 29.085 22.2166 29.0402C22.0831 29.0236 21.9508 29.007 21.8222 28.9895C21.3298 28.9225 20.8438 28.8365 20.3661 28.6703C20.313 28.6519 20.2398 28.6025 20.1561 28.5088C19.9821 28.7992 19.7904 29.0785 19.5824 29.3456C19.7184 29.4634 19.8697 29.5565 20.0375 29.6148C20.6097 29.8139 21.1736 29.9105 21.6874 29.9804C21.8435 30.0017 21.9918 30.0202 22.1338 30.0379C22.4756 30.0805 22.7817 30.1187 23.0745 30.1799C23.4772 30.2639 23.7884 30.3803 24.0322 30.5668C24.2677 30.747 24.4768 31.0207 24.6255 31.486C24.7746 31.9529 24.8205 32.6572 24.8315 33.4974C24.8349 33.7602 24.835 34.0363 24.835 34.3165C24.8351 34.8933 24.8351 35.4873 24.865 36.0183C24.8876 36.4187 24.9279 36.8072 25.0027 37.153C25.0763 37.4931 25.1911 37.8298 25.3862 38.0985C25.5932 38.3836 25.8915 38.5903 26.2842 38.6316C26.6522 38.6702 27.0391 38.5563 27.4331 38.3508L27.4662 38.3335C28.4871 37.8009 29.2074 37.4252 29.724 37.0788C30.267 36.7149 30.6179 36.3627 30.8903 35.8651C31.1397 35.4096 31.3151 34.8424 31.5453 34.098L31.5603 34.0494C31.8032 33.2644 32.1244 32.2259 32.6687 30.7795C32.8964 30.1745 33.1896 29.8235 33.4914 29.5992C33.8001 29.3696 34.1519 29.2466 34.5443 29.1497C34.6481 29.1241 34.7637 29.0989 34.8848 29.0724C35.1763 29.0088 35.5001 28.9381 35.7683 28.8385C36.1921 28.681 36.6034 28.4162 36.8518 27.8978C36.9919 27.6056 37.0892 27.3463 37.1353 27.1146C37.1818 26.8811 37.183 26.6415 37.0899 26.4173C36.9942 26.1867 36.8269 26.0394 36.6645 25.9427C36.5119 25.8517 36.3401 25.7918 36.2001 25.7459C36.158 25.7321 36.1169 25.7188 36.0766 25.7059C35.8214 25.6238 35.6001 25.5526 35.386 25.4136C35.1602 25.267 34.933 25.0344 34.7706 24.5889C34.7455 24.52 34.7421 24.4642 34.8399 24.3564C34.9628 24.221 35.2077 24.0632 35.6002 23.9081C36.3736 23.6025 37.517 23.3845 38.7391 23.2675C39.9544 23.1512 41.2056 23.1386 42.1774 23.2245C42.6655 23.2676 43.0641 23.334 43.3462 23.4166C43.4553 23.4485 43.5365 23.4799 43.594 23.5077C43.599 23.6811 43.6015 23.8551 43.6015 24.0297C43.6015 33.4552 36.2836 41.0595 27.3008 41.0595C25.6762 41.0595 24.106 40.8107 22.6238 40.3475H19.9312C22.1655 41.4453 24.663 42.0595 27.3008 42.0595C36.8755 42.0595 44.6015 33.9671 44.6015 24.0297C44.6015 14.0924 36.8755 6 27.3008 6C20.4903 6 14.6152 10.0943 11.7905 16.0345C12.0534 16.0117 12.3196 16 12.5887 16C12.6991 16 12.8091 16.002 12.9185 16.0059Z" fill="#8181EA"/>
<path fill-rule="evenodd" clip-rule="evenodd" d="M14.9649 30.9841C17.9009 30.0964 20.0386 27.3701 20.0386 24.1444C20.0386 20.1987 16.8399 17 12.8942 17C8.94844 17 5.74977 20.1987 5.74977 24.1444C5.74977 27.3969 7.92317 30.1418 10.8969 31.0059C7.34694 31.7881 4.48281 34.6164 4.06214 38.3777L4 38.9332H21.787L21.7264 38.3789C21.4524 35.8736 20.3563 33.963 18.7511 32.6839C17.6688 31.8215 16.3704 31.258 14.9649 30.9841ZM19.0386 24.1444C19.0386 27.5379 16.2877 30.2888 12.8942 30.2888C9.50072 30.2888 6.74977 27.5379 6.74977 24.1444C6.74977 20.7509 9.50072 18 12.8942 18C16.2877 18 19.0386 20.7509 19.0386 24.1444ZM20.6552 37.9332H5.13966C5.82394 34.3351 9.11864 31.7888 12.8942 31.7888C14.8997 31.7888 16.7375 32.358 18.1279 33.466C19.3956 34.4761 20.3195 35.9557 20.6552 37.9332Z" fill="#8181EA"/>
</svg>
