<svg width="49" height="48" viewBox="0 0 49 48" fill="none" xmlns="http://www.w3.org/2000/svg">
<path d="M41.5111 15.2903C41.5111 20.1188 38.1855 24.1706 33.6998 25.2801C38.2992 26.0261 42.5823 28.865 44.7742 33.7969L43.8604 34.203C41.1009 27.9942 34.7786 25.3449 28.9786 26.2552C29.136 25.649 29.244 25.0229 29.298 24.3814C29.9184 24.512 30.5616 24.5806 31.2208 24.5806C36.3517 24.5806 40.5111 20.4212 40.5111 15.2903C40.5111 10.1594 36.3517 6 31.2208 6C26.8855 6 23.2437 8.96949 22.2186 12.9855C21.9086 12.8638 21.592 12.7556 21.2693 12.6615C22.4311 8.25177 26.4462 5 31.2208 5C36.9039 5 41.5111 9.60713 41.5111 15.2903Z" fill="#8181EA"/>
<path d="M29.0784 21.0192C28.9835 20.5855 28.8634 20.1612 28.7199 19.7479C29.4676 20.1828 30.3385 20.4032 31.2204 20.4032C32.9579 20.4032 34.6532 19.5474 35.4464 17.8818L36.3492 18.3117C35.3605 20.388 33.2693 21.4032 31.2204 21.4032C30.4948 21.4032 29.7638 21.2759 29.0784 21.0192Z" fill="#8181EA"/>
<path d="M29.3495 12.4838C29.3495 13.0005 28.9307 13.4193 28.414 13.4193C27.8974 13.4193 27.4785 13.0005 27.4785 12.4838C27.4785 11.9672 27.8974 11.5483 28.414 11.5483C28.9307 11.5483 29.3495 11.9672 29.3495 12.4838Z" fill="#8181EA"/>
<path d="M34.0269 13.4193C34.5435 13.4193 34.9623 13.0005 34.9623 12.4838C34.9623 11.9672 34.5435 11.5483 34.0269 11.5483C33.5102 11.5483 33.0914 11.9672 33.0914 12.4838C33.0914 13.0005 33.5102 13.4193 34.0269 13.4193Z" fill="#8181EA"/>
<path fill-rule="evenodd" clip-rule="evenodd" d="M20.5938 33.3423C25.0417 32.2378 28.3382 28.2181 28.3382 23.4286C28.3382 17.7874 23.7651 13.2143 18.124 13.2143C12.4828 13.2143 7.90967 17.7874 7.90967 23.4286C7.90967 28.2181 11.2062 32.2377 15.6541 33.3422C11.0907 34.085 6.84198 36.9032 4.66699 41.797L5.5808 42.2031C10.3572 31.4561 25.8906 31.4561 30.667 42.2031L31.5808 41.797C29.4058 36.9032 25.1572 34.085 20.5938 33.3423ZM27.3382 23.4286C27.3382 28.5175 23.2129 32.6429 18.124 32.6429C13.035 32.6429 8.90967 28.5175 8.90967 23.4286C8.90967 18.3397 13.035 14.2143 18.124 14.2143C23.2129 14.2143 27.3382 18.3397 27.3382 23.4286Z" fill="#8181EA"/>
<path fill-rule="evenodd" clip-rule="evenodd" d="M18.1239 28.5C19.8475 28.5 21.5287 27.6511 22.3153 25.9993L23.2182 26.4293C22.2361 28.4917 20.1588 29.5 18.1239 29.5C16.0889 29.5 14.0117 28.4917 13.0296 26.4293L13.9325 25.9993C14.719 27.6511 16.4003 28.5 18.1239 28.5Z" fill="#8181EA"/>
<path d="M16.2668 20.6429C16.2668 21.1557 15.851 21.5714 15.3382 21.5714C14.8253 21.5714 14.4096 21.1557 14.4096 20.6429C14.4096 20.13 14.8253 19.7143 15.3382 19.7143C15.851 19.7143 16.2668 20.13 16.2668 20.6429Z" fill="#8181EA"/>
<path d="M21.8382 20.6429C21.8382 21.1557 21.4224 21.5714 20.9096 21.5714C20.3968 21.5714 19.981 21.1557 19.981 20.6429C19.981 20.13 20.3968 19.7143 20.9096 19.7143C21.4224 19.7143 21.8382 20.13 21.8382 20.6429Z" fill="#8181EA"/>
</svg>
