<svg width="100" height="48" viewBox="0 0 100 48" fill="none" xmlns="http://www.w3.org/2000/svg">
<path d="M27.3125 30.1961V12.0262H30.1355V19.1895C31.0245 17.8654 32.3579 17.2031 34.1355 17.2027C35.6518 17.2027 36.8239 17.6514 37.6519 18.549C38.4799 19.4465 38.894 20.6971 38.8941 22.3006V30.1961H36.071V22.6928C36.071 20.619 35.1472 19.5819 33.2996 19.5817C32.3756 19.5817 31.6175 19.8605 31.0252 20.4183C30.433 20.976 30.1365 21.7603 30.136 22.7712V30.1959L27.3125 30.1961Z" fill="#B9B8C8"/>
<path d="M52.2358 28.6279C50.9809 29.8828 49.4037 30.5102 47.5039 30.5102C45.6042 30.5102 44.0225 29.8828 42.7587 28.6279C41.495 27.3729 40.8632 25.7779 40.8633 23.8428C40.8634 21.9079 41.4952 20.3175 42.7587 19.0719C44.0223 17.826 45.604 17.2029 47.5039 17.2026C49.4038 17.2024 50.9811 17.8255 52.2358 19.0719C53.4909 20.3183 54.1184 21.9086 54.1183 23.8428C54.1182 25.7771 53.4907 27.3721 52.2358 28.6279ZM44.8242 27.0329C45.4947 27.8172 46.388 28.2094 47.5039 28.2094C48.6199 28.2094 49.5131 27.8172 50.1836 27.0329C50.8543 26.2486 51.1898 25.1853 51.1901 23.8428C51.1901 22.5184 50.8503 21.4639 50.1706 20.6795C49.4909 19.8951 48.602 19.5029 47.5039 19.503C46.3883 19.503 45.495 19.8908 44.8242 20.6664C44.1533 21.442 43.8178 22.5006 43.8176 23.8423C43.8176 25.1853 44.1531 26.2488 44.8242 27.0329Z" fill="#B9B8C8"/>
<path d="M60.653 30.5098C58.0558 30.5098 56.7572 29.1154 56.7572 26.3267V19.8954H54.7969V17.5164H56.8361L57.4898 13.7786H59.6071V17.5164H64.6528V19.8954H59.6073V26.2484C59.6073 27.4163 60.0343 28.0002 60.8883 28.0001C61.6898 28.0001 62.4131 27.268 63.0582 25.8039L65.2544 26.9282C64.1735 29.3162 62.6397 30.51 60.653 30.5098Z" fill="#B9B8C8"/>
<path d="M66.1619 36C64.907 36 63.8699 35.6514 63.0508 34.9542L64.0966 32.732C64.6022 33.3243 65.1512 33.6207 65.7437 33.6213C66.5279 33.6213 66.92 33.1159 66.92 32.105V17.5164H69.7431V32.1566C69.7431 33.5161 69.4076 34.4965 68.7365 35.0977C68.0655 35.699 67.2073 35.9997 66.1619 36ZM68.3318 15.3724C67.8677 15.3882 67.4163 15.219 67.0769 14.902C66.9136 14.7481 66.785 14.5613 66.6994 14.354C66.6138 14.1467 66.5732 13.9235 66.5803 13.6994C66.574 13.4733 66.615 13.2485 66.7005 13.0392C66.786 12.8298 66.9142 12.6406 67.0769 12.4836C67.4182 12.1725 67.8634 12 68.3253 12C68.7871 12 69.2324 12.1725 69.5737 12.4836C69.7398 12.6387 69.8712 12.8272 69.9591 13.0368C70.0469 13.2463 70.0894 13.4722 70.0835 13.6994C70.0876 13.9224 70.0443 14.1438 69.9564 14.3489C69.8685 14.5539 69.7381 14.738 69.5737 14.8888C69.4087 15.0472 69.2141 15.1715 69.001 15.2545C68.7879 15.3375 68.5605 15.3775 68.3318 15.3724Z" fill="#B9B8C8"/>
<path d="M76.7553 30.5099C75.3084 30.5099 74.1362 30.1482 73.2389 29.425C72.3415 28.7017 71.8928 27.7303 71.8926 26.5106C71.8926 25.3952 72.3588 24.4495 73.2913 23.6734C74.2237 22.8974 75.3958 22.5096 76.8075 22.5101C78.2542 22.5101 79.4743 22.972 80.4677 23.8958V22.3531C80.4677 21.4471 80.2367 20.7456 79.7748 20.2485C79.3128 19.7515 78.6549 19.5031 77.8011 19.5034C76.0756 19.5034 75.0037 20.3835 74.5853 22.1438L71.997 21.5948C72.3452 20.2355 73.0337 19.1636 74.0625 18.3793C75.0913 17.5949 76.3723 17.2028 77.9055 17.2028C79.5789 17.2028 80.8992 17.6429 81.8664 18.5231C82.8336 19.4033 83.3172 20.6887 83.3174 22.3791V30.1962H80.5722V28.6012C79.6482 29.8738 78.3759 30.5101 76.7553 30.5099ZM77.2775 28.4184C78.5326 28.4184 79.5959 27.791 80.4676 26.5362V26.1436C79.5958 25.0979 78.5325 24.575 77.2775 24.5751C76.5456 24.5751 75.9528 24.7539 75.499 25.1115C75.2845 25.2695 75.1109 25.4765 74.9927 25.7153C74.8744 25.954 74.815 26.2176 74.8192 26.4839C74.8123 26.7531 74.8692 27.0201 74.985 27.2632C75.1009 27.5062 75.2726 27.7185 75.486 27.8826C75.9314 28.2399 76.5288 28.4185 77.2781 28.4184H77.2775Z" fill="#B9B8C8"/>
<path d="M86.0645 30.1961V17.5164H88.8096V19.7124C89.5065 18.109 90.7091 17.3073 92.4175 17.3072C93.428 17.3072 94.2646 17.6383 94.9273 18.3006C95.59 18.9629 95.921 19.8518 95.9204 20.9673C95.9134 21.6349 95.7987 22.297 95.5806 22.928L92.9924 22.6666C93.0455 22.3201 93.0803 21.9711 93.0968 21.6209C93.0968 20.3138 92.5566 19.6601 91.4761 19.6601C90.7439 19.6601 90.1295 20.0479 89.6329 20.8234C89.1364 21.599 88.8879 22.623 88.8877 23.8955V30.1961H86.0645Z" fill="#B9B8C8"/>
<path d="M9.68018 19.4564C11.7842 18.2876 14.6658 16.6863 14.6658 12.0262H11.1765C11.1765 14.6336 9.90715 15.3388 7.98564 16.4063C5.88163 17.5756 3 19.1761 3 23.8367H6.48929C6.48929 21.2292 7.75867 20.524 9.68018 19.4564Z" fill="#B9B8C8"/>
<path d="M15.7195 18.3856C15.7195 20.9931 14.4501 21.6983 12.5286 22.7656C10.4252 23.9345 7.54297 25.5355 7.54297 30.196H11.0321C11.0321 27.5885 12.3015 26.8833 14.223 25.8158C16.327 24.6469 19.2085 23.0461 19.2085 18.3856H15.7195Z" fill="#B9B8C8"/>
</svg>
