<svg width="158" height="40" viewBox="0 0 158 40" fill="none" xmlns="http://www.w3.org/2000/svg">
<path d="M60.041 4.33484V16.7238H63.2361V13.0921H65.3516C68.1462 13.0921 70.0703 11.3664 70.0703 8.73064C70.0703 6.06912 68.242 4.33484 65.5432 4.33484H60.041ZM63.2361 6.75596H64.6987C66.0481 6.75596 66.8404 7.43422 66.8404 8.73923C66.8404 10.0271 66.0394 10.7139 64.6813 10.7139H63.2361V6.75596Z" fill="#181818"/>
<path d="M75.6159 16.7238V4.33484H72.4209V16.7238H75.6159Z" fill="#181818"/>
<path d="M81.6143 16.7238V9.68364H81.7797L87.0294 16.7238H89.5628V4.33484H86.5331V11.3063H86.3677L81.1355 4.33484H78.5846V16.7238H81.6143Z" fill="#181818"/>
<path d="M103.832 11.5639V9.96696H98.4515V12.1305H100.75L100.741 12.3366C100.663 13.5901 99.653 14.4315 98.1991 14.4315C96.3708 14.4315 95.1955 12.9376 95.1955 10.4821C95.1955 8.06955 96.2576 6.62718 98.0424 6.62718C99.296 6.62718 100.236 7.28827 100.55 8.37863H103.701C103.388 5.76004 101.107 4 98.0424 4C94.2727 4 91.9395 6.48981 91.9395 10.5164C91.9395 14.5946 94.264 17.0586 98.1294 17.0586C101.681 17.0586 103.832 14.9723 103.832 11.5639Z" fill="#181818"/>
<path d="M106.217 4.33484V16.7238H109.412V13.0921H111.528C114.322 13.0921 116.246 11.3664 116.246 8.73064C116.246 6.06912 114.418 4.33484 111.719 4.33484H106.217ZM109.412 6.75596H110.875C112.224 6.75596 113.017 7.43422 113.017 8.73923C113.017 10.0271 112.216 10.7139 110.857 10.7139H109.412V6.75596Z" fill="#181818"/>
<path d="M124.204 4C120.434 4 118.005 6.4984 118.005 10.525C118.005 14.5602 120.408 17.0586 124.204 17.0586C127.982 17.0586 130.385 14.5602 130.385 10.525C130.385 6.4984 127.982 4 124.204 4ZM124.204 6.61001C125.962 6.61001 127.138 8.13824 127.138 10.525C127.138 12.9204 125.971 14.4486 124.204 14.4486C122.419 14.4486 121.261 12.9204 121.261 10.525C121.261 8.13824 122.436 6.61001 124.204 6.61001Z" fill="#181818"/>
<path d="M135.783 16.7238V9.68364H135.948L141.198 16.7238H143.731V4.33484H140.701V11.3063H140.536L135.304 4.33484H132.753V16.7238H135.783Z" fill="#181818"/>
<path d="M158 11.5639V9.96696H152.62V12.1305H154.918L154.909 12.3366C154.831 13.5901 153.821 14.4315 152.367 14.4315C150.539 14.4315 149.364 12.9376 149.364 10.4821C149.364 8.06955 150.426 6.62718 152.211 6.62718C153.464 6.62718 154.404 7.28827 154.718 8.37863H157.869C157.556 5.76004 155.275 4 152.211 4C148.441 4 146.108 6.48981 146.108 10.5164C146.108 14.5946 148.432 17.0586 152.298 17.0586C155.85 17.0586 158 14.9723 158 11.5639Z" fill="#181818"/>
<path d="M60 32.796H63.6079C65.2166 32.796 66.2318 31.9432 66.2318 30.6248V30.6143C66.2318 29.6569 65.4717 28.8878 64.4877 28.8355V28.7361C65.2842 28.6262 65.8882 27.9408 65.8882 27.1351V27.1247C65.8882 25.958 65.0031 25.2464 63.5037 25.2464H60V32.796ZM62.9935 26.6015C63.6443 26.6015 64.0244 26.9259 64.0244 27.4595V27.47C64.0244 27.9984 63.6183 28.3227 62.9207 28.3227H61.9107V26.6015H62.9935ZM63.056 29.4894C63.8473 29.4894 64.2899 29.8295 64.2899 30.4469V30.4573C64.2899 31.0904 63.8578 31.4409 63.0664 31.4409H61.9107V29.4894H63.056Z" fill="#181818"/>
<path d="M70.3282 32.796H72.2388V30.201L74.8263 25.2464H72.7907L71.3382 28.328H71.2392L69.7763 25.2464H67.7407L70.3282 30.201V32.796Z" fill="#181818"/>
<path d="M80.4264 32.796H82.3371V29.751H85.3306V32.796H87.2361V25.2464H85.3306V28.2076H82.3371V25.2464H80.4264V32.796Z" fill="#181818"/>
<path d="M93.2119 33C95.4714 33 96.9135 31.4775 96.9135 29.0238V29.0133C96.9135 26.5649 95.4662 25.0424 93.2119 25.0424C90.9524 25.0424 89.5051 26.5649 89.5051 29.0133V29.0238C89.5051 31.4775 90.942 33 93.2119 33ZM93.2119 31.4095C92.1447 31.4095 91.447 30.4783 91.447 29.0238V29.0133C91.447 27.5641 92.1551 26.6329 93.2119 26.6329C94.2636 26.6329 94.9664 27.5641 94.9664 29.0133V29.0238C94.9664 30.4783 94.2636 31.4095 93.2119 31.4095Z" fill="#181818"/>
<path d="M100.703 32.796H102.608V26.7898H104.779V25.2464H98.537V26.7898H100.703V32.796Z" fill="#181818"/>
<path d="M108.449 33C110.203 33 111.208 32.0321 111.208 30.3579V25.2464H109.297V30.3422C109.297 31.0171 109.001 31.3729 108.423 31.3729C107.876 31.3729 107.543 31.0014 107.532 30.4102V30.3893H105.695V30.4207C105.715 32.0112 106.767 33 108.449 33Z" fill="#181818"/>
<path d="M113.133 32.796H115.138L115.601 31.1375H118.053L118.517 32.796H120.521L117.996 25.2464H115.658L113.133 32.796ZM116.778 26.9102H116.877L117.668 29.7563H115.986L116.778 26.9102Z" fill="#181818"/>
<path d="M122.634 32.796H124.544V30.1539H125.534L126.82 32.796H128.964L127.465 29.8714C128.277 29.5104 128.741 28.668 128.741 27.7472V27.7368C128.741 26.1777 127.746 25.2464 125.898 25.2464H122.634V32.796ZM124.544 28.8407V26.6957H125.674C126.361 26.6957 126.793 27.1247 126.793 27.7629V27.7734C126.793 28.4274 126.372 28.8407 125.685 28.8407H124.544Z" fill="#181818"/>
<path d="M23.7183 33.2059C30.0035 34.2009 37.3765 33.3508 42.8232 30.7039C50.4475 27.0017 51.033 21.2734 44.1287 17.9075C37.2244 14.5415 25.4643 14.8122 17.8312 18.5127C12.3739 21.1596 10.727 24.7462 12.756 27.8052C13.0514 28.4622 13.4158 29.5106 13.0549 30.2193C12.5755 31.1522 10.4705 32.0661 7.6401 33.2835C5.14231 34.3578 3.25658 35.1269 1.47877 35.7907C0.463375 36.1701 0.357236 36.2942 0.36785 36.3753C0.36785 36.4167 0.396154 36.4615 0.463375 36.4925L5.75084 39.0791C5.86256 39.1249 5.98582 39.1369 6.10463 39.1136C6.28153 39.086 6.32752 39.017 6.94312 38.6307C8.31585 37.7686 9.99283 36.8719 12.2094 35.6597C14.7195 34.2802 16.8388 33.2456 18.7546 33.0076C20.2104 32.8248 22.7118 33.1007 23.7183 33.2059Z" fill="#EFEEFA"/>
<path d="M42.434 22.5976C50.0176 18.9161 50.5978 13.2189 43.7342 9.87018C36.8705 6.52148 25.1599 6.7922 17.5728 10.472C13.7182 12.3429 11.7777 14.6829 11.6963 16.9728L29.057 25.4377C33.7642 25.4049 38.5811 24.4668 42.434 22.5976Z" fill="#51B155"/>
<path d="M14.2611 20.5647L18.2784 22.5235L17.7477 23.1857L5.43211 31.1056L1.27148 28.3363C1.27148 28.3363 3.08645 26.6275 3.99747 26.0585C4.90849 25.4894 14.2611 20.5647 14.2611 20.5647Z" fill="#D19D95"/>
<path d="M48.5164 14.3208C48.5642 12.643 46.583 10.998 43.7402 9.60813C36.8748 6.25944 25.166 6.53016 17.5789 10.2099C14.3027 11.8032 12.4082 13.5138 11.8616 15.4589H11.7041V16.5745C11.6387 17.5557 11.8509 18.3437 12.5249 19.4525C12.7337 19.9422 13.1812 21.1492 12.8221 21.8493C12.3463 22.7822 3.04676 26.8724 0.0625 27.5983C0.0625 27.5983 0.0925725 28.1053 0.179252 28.1053L5.44195 30.5918C5.53924 30.6401 5.48087 30.9367 5.52332 30.9143C5.52332 30.9143 6.36358 30.3814 6.95619 29.9693C8.45214 28.9164 10.0142 27.9557 11.6334 27.0931C14.1294 25.7257 16.5865 24.8514 18.4987 24.6186C19.9351 24.4462 22.371 24.598 23.3723 24.7014C29.6238 25.6895 37.0093 24.9704 42.4329 22.3356C46.1619 20.5285 48.1945 18.2368 48.4881 15.9727C48.5448 15.5416 48.4988 14.9847 48.5164 14.3208Z" fill="#D19D95"/>
<path d="M23.5181 23.5771C29.7678 24.5635 37.1002 23.7203 42.5239 21.0872C50.1075 17.4074 50.4648 11.6032 43.5994 8.25797C36.7341 4.91272 25.2393 5.28346 17.6574 8.96323C12.2338 11.5963 10.5939 15.1709 12.6106 18.2058C12.9042 18.8593 13.2669 19.9025 12.9095 20.6026C12.4319 21.5303 10.6258 22.7253 7.81134 23.9375C5.33478 25.0066 3.16425 25.4894 1.39528 26.1447C0.386961 26.5223 0.383423 26.5499 0.395806 26.6275C0.395806 26.6706 0.532017 26.7362 0.597469 26.7689L5.64612 29.183C5.74341 29.2296 5.72926 29.3348 5.84955 29.3106C6.02645 29.2813 5.86017 29.3848 6.47223 29.0002C7.83611 28.1381 9.5184 27.0534 11.7208 25.8481C14.2168 24.4807 16.6739 23.6065 18.5879 23.3754C20.0226 23.1961 22.5115 23.472 23.5181 23.5771Z" fill="#EDD0CC"/>
<path d="M42.4346 21.1371C50.0182 17.4556 50.5984 11.7583 43.7348 8.41138C36.8712 5.0644 25.1606 5.3334 17.5734 9.01318C13.9417 10.7737 11.8437 13.5431 11.6969 15.0864C11.6845 15.2191 11.6969 15.3829 11.6969 15.514L29.0576 23.9771C33.7648 23.9444 38.5818 23.0046 42.4346 21.1371Z" fill="#51B155"/>
<path d="M42.434 20.7009C50.0176 17.0211 50.5978 11.3221 43.7342 7.97517C36.8705 4.62819 25.1599 4.89719 17.5728 8.57696C13.7182 10.4548 11.7777 12.7947 11.6963 15.0864L29.057 23.5513C33.7642 23.5168 38.5811 22.5787 42.434 20.7009Z" fill="#61C163"/>
<path d="M18.095 18.2212L21.2791 19.7214L19.5102 21.0268L5.80592 29.433L0.385791 26.7016C0.384388 26.5766 0.413492 26.4531 0.470702 26.3413C0.527912 26.2295 0.611587 26.1325 0.71482 26.0584C1.03323 25.8653 1.57985 25.6204 2.33166 25.2583C3.57702 24.6669 18.095 18.2212 18.095 18.2212Z" fill="#DDB4AF"/>
<path d="M21.2768 19.7215L21.7491 20.4233L5.76114 29.7779L4.89258 28.4191L21.2768 19.7215Z" fill="#D19D95"/>
<path d="M5.60386 30.6332L0.296942 28.0466C0.227831 28.0192 0.161991 27.9845 0.100586 27.9432C0.252718 28.507 0.440229 29.095 0.997455 29.6399C1.31233 29.9469 2.22158 30.3883 2.91502 30.7211C3.55362 31.028 4.38504 31.4815 4.77421 31.3936C5.30491 31.2746 5.58794 31.0487 5.76484 30.6194C5.72415 30.6021 5.6357 30.6487 5.60386 30.6332Z" fill="#C48F8A"/>
<path d="M2.79458 26.4464C2.02862 26.0791 1.32633 25.7446 0.981384 25.886C0.625363 26.0285 0.332668 26.2893 0.155273 26.6223L0.194191 26.6412L5.79299 29.3692C5.62008 28.8125 5.35281 28.2879 5.00226 27.8172C4.65377 27.3241 3.58001 26.824 2.79458 26.4464Z" fill="#C48F8A"/>
<path d="M5.85176 30.1573C5.80931 31.3436 4.43658 31.3643 2.8622 30.5953C1.28781 29.8262 0 28.4984 0 27.3086C0 26.1188 1.13745 25.736 2.70476 26.5361C5.28392 27.8501 5.89776 28.8709 5.85176 30.1573Z" fill="#C48F8A"/>
<path d="M34.3499 13.6603C34.3499 14.9518 32.3881 16.0003 29.9663 16.0003C27.5446 16.0003 25.5811 14.9536 25.5811 13.6603C25.5811 12.367 27.5428 11.3204 29.9663 11.3204C32.3898 11.3204 34.3499 12.367 34.3499 13.6603Z" fill="#51B155"/>
<path d="M29.8052 8.73213C32.2789 8.73213 34.2843 6.77738 34.2843 4.36607C34.2843 1.95475 32.2789 0 29.8052 0C27.3315 0 25.3262 1.95475 25.3262 4.36607C25.3262 6.77738 27.3315 8.73213 29.8052 8.73213Z" fill="#F5F5FC"/>
<path d="M32.7737 1.09669C33.4326 1.96445 33.7384 3.03941 33.6319 4.11402C33.5254 5.18863 33.0143 6.18667 32.1971 6.91546C31.38 7.64424 30.3149 8.05207 29.2073 8.0602C28.0998 8.06834 27.0285 7.6762 26.2002 6.9595C26.5734 7.45103 27.0484 7.86064 27.5944 8.16181C28.1404 8.46298 28.7452 8.64899 29.3697 8.70778C29.9941 8.76657 30.6243 8.69684 31.2193 8.5031C31.8143 8.30936 32.361 7.99594 32.8238 7.58313C33.2867 7.17033 33.6554 6.66735 33.9061 6.10678C34.1568 5.54621 34.2839 4.94055 34.2792 4.32904C34.2745 3.71753 34.138 3.11381 33.8787 2.55699C33.6193 2.00016 33.2429 1.50266 32.7737 1.09669Z" fill="#DFDFE8"/>
<path d="M27.262 4.27812C27.2067 4.27851 27.1515 4.27272 27.0975 4.26087C26.902 4.21766 26.7321 4.10063 26.6249 3.93545C26.5178 3.77027 26.4823 3.57041 26.5261 3.37973C26.818 2.07784 27.9926 1.3881 28.1182 1.31912C28.2918 1.22034 28.4985 1.19282 28.6929 1.24262C28.8873 1.29242 29.0535 1.41546 29.1548 1.58467C29.2562 1.75389 29.2844 1.95541 29.2333 2.14491C29.1822 2.33441 29.056 2.49636 28.8824 2.59515C28.8612 2.60722 28.1536 3.02968 27.9979 3.69529C27.962 3.85974 27.8694 4.00724 27.7355 4.11328C27.6016 4.21931 27.4345 4.27748 27.262 4.27812Z" fill="white"/>
</svg>
