<svg width="100" height="48" viewBox="0 0 100 48" fill="none" xmlns="http://www.w3.org/2000/svg">
<path d="M12.9722 12H15.8346V12.5203H15.2955C15.2012 12.5203 15.0368 12.6253 14.7999 12.833C14.5629 13.0407 14.4445 13.204 14.4445 13.3113V21.2447C14.4445 21.3543 14.5629 21.513 14.7999 21.723C15.0368 21.933 15.2012 22.038 15.2955 22.038H15.8346V22.556H11.6112V22.0333H12.1503C12.2446 22.0333 12.4065 21.9283 12.6338 21.7183C12.861 21.5083 12.9746 21.3497 12.9746 21.24V13.5587L9.00509 22.745L5.04038 13.4V21.2423C5.04038 21.352 5.154 21.5107 5.37883 21.7207C5.60366 21.9307 5.76805 22.0357 5.86233 22.0357H6.39902V22.5537H3V22.0333H3.5391C3.65273 22.0333 3.82195 21.9283 4.0492 21.7183C4.27644 21.5083 4.38765 21.3497 4.38765 21.24V13.3113C4.38765 13.204 4.27403 13.043 4.0492 12.833C3.82437 12.623 3.65273 12.5203 3.5391 12.5203H3V12H6.17177L9.45958 19.903H9.5442L12.9722 12ZM19.7727 21.4873C20.2551 21.5151 20.7359 21.4116 21.1603 21.1887C21.5125 20.9559 21.8031 20.6466 22.0089 20.2857H22.4634C22.2614 20.9635 21.8749 21.5766 21.3441 22.0613C20.7618 22.5275 20.0178 22.7627 19.2626 22.7193C18.8136 22.735 18.367 22.6491 17.9585 22.4684C17.5501 22.2877 17.1911 22.0172 16.9103 21.6787C16.3213 20.9763 16.0103 20.0947 16.0328 19.1913C16.0065 18.7079 16.0805 18.2242 16.2502 17.7687C16.42 17.3131 16.6822 16.8949 17.0216 16.5383C17.3251 16.2233 17.6935 15.9729 18.1032 15.8034C18.5128 15.6338 18.9547 15.5487 19.4004 15.5537C19.8851 15.5429 20.367 15.6271 20.817 15.801C21.2255 15.969 21.5997 16.2061 21.9218 16.501L20.8896 18.0667L20.4641 18.0923C20.5607 17.6264 20.5315 17.1443 20.3795 16.6923C20.2892 16.482 20.1284 16.307 19.9228 16.1953C19.7172 16.0837 19.4788 16.0418 19.2457 16.0763C18.9418 16.0577 18.6381 16.1159 18.3646 16.2452C18.0911 16.3745 17.8574 16.5705 17.6864 16.8137C17.3215 17.3988 17.144 18.0751 17.1763 18.7573C17.1558 19.4643 17.4024 20.1542 17.8701 20.6987C18.1051 20.96 18.3984 21.1667 18.7278 21.3033C19.0573 21.4399 19.4145 21.5028 19.7727 21.4873V21.4873ZM26.798 22.5537H22.519V22.0333H23.0653C23.1789 22.0333 23.3482 21.9283 23.5754 21.7183C23.8027 21.5083 23.9139 21.3497 23.9139 21.24V13.3113C23.9139 13.204 23.8027 13.043 23.5754 12.833C23.3482 12.623 23.1717 12.5203 23.0653 12.5203H22.519V12H26.798V12.5203H26.2589C26.1452 12.5203 25.976 12.6253 25.7488 12.833C25.5215 13.0407 25.4103 13.204 25.4103 13.3113V17.6327L29.3194 13.421C29.3944 13.33 29.3194 13.1573 29.1212 12.903C28.923 12.6487 28.761 12.5203 28.6667 12.5203H28.1421V12H32.1068V12.5203H31.5677C31.3014 12.6087 31.0569 12.7493 30.8497 12.9333C30.4702 13.2157 30.2453 13.4 30.168 13.4677L27.5087 16.228L31.3332 21.128C31.5188 21.3367 31.7326 21.5204 31.969 21.674C32.1589 21.8425 32.3876 21.9649 32.6362 22.031H33.4292C33.6169 21.9934 33.7867 21.8975 33.9127 21.758C34.1206 21.5737 34.2245 21.4197 34.2245 21.2913V16.977C34.2245 16.8673 34.1206 16.7203 33.9127 16.5383C33.7867 16.3988 33.6169 16.3029 33.4292 16.2653H33.0013V15.745H35.5227V21.296C35.5227 21.4243 35.6315 21.5783 35.8491 21.7627C35.9743 21.895 36.1362 21.9898 36.3157 22.0357H37.1957C37.2899 22.0357 37.4374 21.9447 37.6477 21.7627C37.8581 21.5807 37.9596 21.4243 37.9596 21.296V16.977C37.9596 16.8673 37.8556 16.7203 37.6477 16.5383C37.4398 16.3563 37.2899 16.2653 37.1957 16.2653H36.7412V15.745H38.9798L39.2626 17.1333C39.647 16.7416 40.059 16.3759 40.4956 16.039C40.939 15.7172 41.4836 15.5525 42.0379 15.5723C42.2982 15.5678 42.5568 15.614 42.7982 15.7082C43.0395 15.8024 43.2587 15.9427 43.4425 16.1207C43.636 16.3058 43.7875 16.5277 43.8873 16.7723C43.9872 17.0169 44.0333 17.2789 44.0227 17.5417V21.296C44.0227 21.4243 44.1267 21.5783 44.3346 21.7627C44.5425 21.947 44.6924 22.0357 44.7866 22.0357H45.2411V22.5537H41.5303V22.0333H41.9219C42.1094 21.9953 42.2791 21.8995 42.4054 21.7603C42.6133 21.576 42.7173 21.422 42.7173 21.2937V17.6327C42.7311 17.3264 42.6298 17.0256 42.432 16.7857C42.3259 16.672 42.1943 16.5833 42.0472 16.5263C41.9001 16.4693 41.7415 16.4454 41.5834 16.4567C41.023 16.4731 40.4823 16.6602 40.0387 16.991C39.5213 17.3457 39.2626 17.642 39.2626 17.88V21.296C39.2626 21.4243 39.3666 21.5783 39.5745 21.7627C39.7004 21.9022 39.8703 21.9981 40.058 22.0357H40.4545V22.5537H30.3179L26.5151 17.278L25.4103 18.426V21.2423C25.4103 21.352 25.5215 21.5107 25.7488 21.7207C25.976 21.9307 26.1452 22.0357 26.2589 22.0357H26.798V22.5537ZM30.5934 34.4537L30.5596 34.421C30.9198 34.7127 31.2849 35.0043 31.6523 35.296C32.0198 35.5877 32.4114 35.87 32.8272 36.1453H33.4775V36.6913H32.2881C31.8039 36.6993 31.3227 36.616 30.8715 36.4463C30.3895 36.2381 29.9486 35.9507 29.5684 35.597C29.1396 36.0138 28.6226 36.3361 28.0526 36.542C27.3932 36.7633 26.6982 36.8692 26.0002 36.8547C25.113 36.8591 24.2542 36.5533 23.5827 35.9937C23.2352 35.723 22.9571 35.3786 22.7701 34.9873C22.583 34.5959 22.4921 34.1682 22.5045 33.7373V33.7373C22.4973 33.0965 22.664 32.4651 22.988 31.9057C23.3023 31.3683 23.7428 30.9096 24.2741 30.5663C24.0199 30.2548 23.8056 29.9148 23.6359 29.5537C23.4685 29.174 23.3861 28.7645 23.3941 28.352C23.3739 28.0305 23.4266 27.7086 23.5485 27.4088C23.6704 27.1089 23.8586 26.8384 24.1 26.616C24.6399 26.1821 25.3302 25.962 26.0316 26C26.4357 25.9868 26.8391 26.0421 27.2234 26.1633C27.4755 26.2634 27.744 26.3195 28.0164 26.329C28.1211 26.3315 28.2258 26.3221 28.3282 26.301C28.414 26.2738 28.4852 26.2151 28.5265 26.1377H29.01V28.625H28.5265C28.4514 28.1114 28.1953 27.6384 27.8012 27.2857C27.5816 27.0325 27.3061 26.8298 26.9949 26.6926C26.6837 26.5553 26.3447 26.4869 26.0026 26.4923C25.5057 26.466 25.0147 26.6061 24.6125 26.889C24.4438 27.022 24.3097 27.1913 24.2212 27.3834C24.1326 27.5755 24.0919 27.785 24.1024 27.995C24.0996 28.4064 24.2507 28.8049 24.5279 29.1173C24.833 29.4606 25.223 29.7239 25.6617 29.8827C26.3596 30.6138 27.1147 31.3472 27.9269 32.083C28.7392 32.8188 29.5136 33.5071 30.2502 34.148C30.4518 33.836 30.6003 33.495 30.6902 33.1377C30.7787 32.7548 30.8217 32.3633 30.8183 31.971C30.8281 31.7603 30.7914 31.55 30.7105 31.3541C30.6296 31.1582 30.5065 30.9811 30.3493 30.8347C30.0031 30.5399 29.5507 30.3882 29.0898 30.4123V29.8827H32.9771V30.375H32.554C32.4598 30.375 32.2736 30.529 32.0004 30.8417C31.7968 31.0256 31.6539 31.2634 31.5895 31.5253V31.5533C31.5707 32.0785 31.4755 32.5985 31.3066 33.098C31.1441 33.5818 30.9034 34.0378 30.5934 34.449V34.4537ZM26.8826 36.0403C27.3296 36.0461 27.7746 35.9815 28.2001 35.849C28.5775 35.7268 28.9349 35.5531 29.2614 35.3333L29.1768 35.2797C28.371 34.5859 27.578 33.875 26.798 33.147C26.0179 32.419 25.262 31.6529 24.5303 30.8487C24.2602 31.1218 24.0403 31.4375 23.88 31.782C23.7114 32.1993 23.634 32.6458 23.6528 33.0933C23.6637 33.4846 23.7618 33.8691 23.9403 34.2206C24.1188 34.5721 24.3737 34.8823 24.6875 35.1303C25.2717 35.6926 26.0578 36.0159 26.8826 36.0333V36.0403ZM34.7298 14.079H34.7008C34.4633 14.0811 34.2346 13.9921 34.065 13.8317C33.9779 13.7559 33.9086 13.6629 33.8619 13.559C33.8152 13.4552 33.7921 13.3429 33.7942 13.2297V13.204C33.7873 13.084 33.808 12.9641 33.8549 12.8527C33.9017 12.7414 33.9734 12.6414 34.065 12.56C34.2519 12.4105 34.4871 12.3287 34.7298 12.3287C34.9726 12.3287 35.2077 12.4105 35.3946 12.56C35.4862 12.6414 35.5579 12.7414 35.6048 12.8527C35.6516 12.9641 35.6723 13.084 35.6654 13.204H35.6364C35.6557 13.204 35.6654 13.204 35.6654 13.2297C35.6675 13.3429 35.6445 13.4552 35.5977 13.559C35.551 13.6629 35.4818 13.7559 35.3946 13.8317C35.2334 13.9886 35.0144 14.0776 34.7854 14.079H34.7298ZM41.9219 35.9797C42.6992 36.0229 43.4713 35.8321 44.1315 35.4337C44.7031 35.0183 45.1598 34.4733 45.4611 33.847H46.0317C45.7188 34.7352 45.1358 35.5117 44.3587 36.0753C43.5596 36.6275 42.5948 36.9111 41.6125 36.8827C40.8966 36.9074 40.1843 36.773 39.5308 36.4898C38.8773 36.2066 38.3 35.7822 37.8436 35.2493C36.897 34.1594 36.3935 32.7745 36.4269 31.3527C36.3887 29.9692 36.8493 28.6159 37.7299 27.5237C38.1573 27.0042 38.7061 26.5898 39.3314 26.3144C39.9566 26.039 40.6406 25.9105 41.3272 25.9393C41.839 25.928 42.3486 26.0071 42.8309 26.1727C43.2366 26.3271 43.6688 26.4063 44.1049 26.406C44.2409 26.4124 44.3766 26.3885 44.5014 26.336C44.6066 26.2839 44.7022 26.2153 44.7842 26.133H45.1807V29.8547H44.6972C44.6154 29.1037 44.3107 28.3915 43.8196 27.8037C43.5574 27.4137 43.1953 27.0956 42.7684 26.8802C42.3415 26.6647 41.8643 26.5593 41.3828 26.574C40.9722 26.5529 40.5615 26.6137 40.1764 26.7527C39.7912 26.8916 39.4398 27.1056 39.1442 27.3813C38.5195 28.1071 38.1774 29.0208 38.1772 29.9643V29.9107C38.1578 30.1113 38.1433 30.312 38.1337 30.5127C38.1337 30.7133 38.1192 30.921 38.1192 31.1403C38.1192 31.3947 38.1192 31.656 38.1482 31.9197C38.1772 32.1833 38.1868 32.426 38.2038 32.6453C38.2792 33.5325 38.6694 34.3673 39.3086 35.009C39.6491 35.3388 40.0578 35.5958 40.5081 35.763C40.9584 35.9302 41.4401 36.0041 41.9219 35.9797ZM50.8667 20.6403C50.8835 20.9251 50.835 21.2099 50.7247 21.4745C50.6143 21.739 50.4449 21.9769 50.2285 22.171C49.7769 22.5464 49.1945 22.7424 48.5991 22.7193C48.2102 22.7307 47.8234 22.6606 47.4652 22.514C47.1827 22.3811 46.873 22.311 46.5587 22.3087C46.4507 22.2986 46.3422 22.3223 46.2492 22.3763L46.022 22.5537H45.6932V20.148H46.1187C46.1977 20.6169 46.4307 21.0488 46.7835 21.38C47.0077 21.6334 47.2888 21.8341 47.6056 21.9668C47.9223 22.0994 48.2662 22.1605 48.6111 22.1453C48.9655 22.1631 49.3183 22.0873 49.6313 21.926C49.752 21.8518 49.8497 21.7477 49.9144 21.6246C49.979 21.5014 50.0082 21.3638 49.9988 21.226C50.0117 21.0618 49.9778 20.8973 49.9006 20.7505C49.8235 20.6036 49.7061 20.48 49.5612 20.393C49.2747 20.223 48.9767 20.0717 48.6692 19.9403C48.4032 19.833 48.1639 19.7327 47.9439 19.6417C47.7239 19.5507 47.4749 19.4503 47.1921 19.3407C46.7918 19.1622 46.4275 18.9165 46.1163 18.615C45.9711 18.4626 45.8587 18.2839 45.7857 18.0892C45.7126 17.8945 45.6804 17.6878 45.6908 17.481C45.6731 17.2217 45.7148 16.9618 45.813 16.7198C45.9112 16.4779 46.0635 16.2597 46.2589 16.081C46.6224 15.8323 47.0441 15.6746 47.4863 15.6221C47.9285 15.5695 48.3773 15.6238 48.7925 15.78C49.0352 15.8965 49.3022 15.958 49.5733 15.9597C49.6561 15.9623 49.7384 15.948 49.8151 15.9177C49.8851 15.8876 49.9411 15.8336 49.9722 15.766H50.3397V17.866H49.9142C49.8454 17.4512 49.6423 17.0681 49.334 16.7717C49.1447 16.5482 48.9042 16.3702 48.6316 16.2515C48.3589 16.1329 48.0615 16.0769 47.7626 16.088C47.4349 16.0621 47.1083 16.1498 46.8415 16.3353C46.7459 16.4114 46.6695 16.5074 46.6179 16.6161C46.5664 16.7248 46.5412 16.8435 46.5442 16.963C46.5354 17.0887 46.5594 17.2145 46.6138 17.3291C46.6683 17.4436 46.7516 17.5431 46.856 17.6187C47.1239 17.7983 47.4079 17.9544 47.7046 18.0853C47.9705 18.1927 48.2195 18.293 48.4564 18.384L49.2349 18.685C49.6412 18.8498 50.0149 19.0811 50.3397 19.3687C50.5189 19.5293 50.6599 19.7256 50.7529 19.9439C50.846 20.1622 50.8889 20.3975 50.8788 20.6333L50.8667 20.6403ZM52.7209 30.648C53.0812 30.9875 53.3625 31.3972 53.5459 31.8498C53.7293 32.3025 53.8107 32.7876 53.7846 33.273C53.8103 33.7604 53.7288 34.2476 53.5455 34.7024C53.3621 35.1572 53.0811 35.5695 52.7209 35.912C52.0701 36.5359 51.1893 36.885 50.272 36.8827C49.3446 36.8893 48.4524 36.5401 47.7916 35.912C47.4318 35.5693 47.1513 35.157 46.9684 34.7021C46.7854 34.2473 46.7043 33.7602 46.7303 33.273C46.7032 32.8096 46.7749 32.3457 46.941 31.9101C47.1072 31.4745 47.3642 31.0765 47.6963 30.7407C48.0283 30.405 48.4282 30.1386 48.8713 29.9581C49.3143 29.7775 49.7911 29.6868 50.272 29.6913C51.1908 29.6849 52.0752 30.0287 52.733 30.648H52.7209ZM52.38 34.4V34.4537C52.3994 34.253 52.4115 34.0523 52.4211 33.8517C52.4308 33.651 52.4356 33.4503 52.4356 33.2497C52.4356 33.049 52.4356 32.8553 52.4211 32.664C52.4066 32.4727 52.3994 32.293 52.38 32.1297C52.336 31.6305 52.1217 31.1595 51.7708 30.7903C51.5709 30.6148 51.3358 30.4805 51.0802 30.3959C50.8245 30.3112 50.5536 30.2779 50.2841 30.298C50.0203 30.28 49.7554 30.3144 49.5059 30.3991C49.2564 30.4837 49.0276 30.6169 48.8336 30.7903C48.4865 31.1508 48.2723 31.6117 48.2243 32.1017V32.0667C48.1868 32.2561 48.1633 32.448 48.1542 32.6407C48.1542 32.8413 48.1397 33.042 48.1397 33.2403C48.1397 33.4387 48.1397 33.637 48.1542 33.8283C48.1627 34.008 48.1861 34.1867 48.2243 34.3627C48.2804 34.8505 48.4934 35.3091 48.8336 35.674C49.0234 35.8549 49.2508 35.9949 49.5009 36.0846C49.7509 36.1743 50.0179 36.2117 50.2841 36.1943C50.5572 36.2175 50.8323 36.1843 51.0911 36.097C51.3499 36.0097 51.5866 35.8703 51.7853 35.688C52.1165 35.3281 52.3242 34.8783 52.38 34.4V34.4ZM54.7033 22.7333C54.2563 22.7415 53.8133 22.651 53.4081 22.4686C53.0029 22.2862 52.6463 22.0168 52.3655 21.681C51.753 20.9825 51.4255 20.0923 51.4445 19.1773C51.4152 18.2393 51.7487 17.3244 52.38 16.6107C52.6603 16.2805 53.0158 16.0173 53.4188 15.8417C53.8218 15.666 54.2614 15.5826 54.7033 15.598C55.0463 15.5795 55.3894 15.6325 55.7093 15.7533C56.0292 15.8741 56.3185 16.0598 56.5575 16.298C57.0013 16.7562 57.2588 17.3536 57.2828 17.9803L57.3118 18.4727L52.6073 18.8367C52.6168 19.492 52.8553 20.1251 53.2842 20.6333C53.4997 20.9127 53.7825 21.1371 54.1081 21.2871C54.4338 21.4371 54.7924 21.5083 55.1529 21.4943C55.6398 21.5208 56.1249 21.4174 56.5551 21.1957C56.9054 20.9752 57.193 20.6736 57.3915 20.3183H57.817C57.637 20.9926 57.2632 21.6041 56.7388 22.0823C56.1681 22.5354 55.4408 22.763 54.7033 22.7193V22.7333ZM54.6743 16.116C54.3653 16.0911 54.0549 16.1448 53.7741 16.2717C53.4933 16.3986 53.2519 16.5943 53.0739 16.8393C52.7548 17.2881 52.573 17.8145 52.5493 18.3583L56.0909 18.0667C56.1515 17.6092 56.0976 17.1443 55.9338 16.711C55.7791 16.3066 55.3592 16.1036 54.6743 16.102V16.116ZM63.2298 36.1827C63.3434 36.1827 63.4982 36.087 63.6964 35.8957C63.8946 35.7043 63.9938 35.555 63.9938 35.4453V31.712C64.0065 31.4207 63.9114 31.1345 63.7254 30.9047C63.6157 30.7924 63.481 30.7057 63.3315 30.6512C63.182 30.5966 63.0215 30.5756 62.8624 30.5897C62.3607 30.6057 61.878 30.7785 61.4868 31.082C61.0242 31.4118 60.793 31.6856 60.793 31.9033V35.457C60.793 35.5667 60.8921 35.716 61.0903 35.9073C61.2886 36.0987 61.436 36.1943 61.5303 36.1943H61.9558V36.7147H58.3295V36.1943H58.726C58.8396 36.1943 58.9943 36.0987 59.1926 35.9073C59.3908 35.716 59.4899 35.5667 59.4899 35.457V31.7237C59.5055 31.4211 59.4048 31.1236 59.2071 30.8883C59.0983 30.7783 58.9655 30.6929 58.8183 30.6384C58.6712 30.5839 58.5133 30.5617 58.3561 30.5733C57.8414 30.5896 57.3474 30.7729 56.954 31.0937C56.4914 31.439 56.2601 31.7307 56.2601 31.9687V35.4687C56.2601 35.5783 56.3593 35.7277 56.5575 35.919C56.7557 36.1103 56.9129 36.206 57.0265 36.206H57.423V36.7263H53.7967V36.206H54.2222C54.3165 36.206 54.4639 36.1103 54.6598 35.919C54.8556 35.7277 54.9571 35.5783 54.9571 35.4687V31.1123C54.9571 31.005 54.858 30.858 54.6598 30.676C54.4615 30.494 54.3165 30.403 54.2222 30.403H53.7967V29.8827H55.9725L56.2553 31.1963C56.6711 30.7763 57.0491 30.4248 57.3891 30.1417C57.8036 29.8358 58.3191 29.6857 58.8396 29.7193C59.2848 29.7107 59.7211 29.8399 60.0846 30.088C60.2656 30.2141 60.4171 30.3754 60.5295 30.5614C60.642 30.7475 60.7128 30.9543 60.7374 31.1683C61.1701 30.767 61.569 30.4287 61.9268 30.1557C62.3365 29.8666 62.8365 29.7217 63.3434 29.745C63.8567 29.7328 64.3546 29.9145 64.7311 30.2513C64.9262 30.4382 65.0777 30.663 65.1757 30.9109C65.2737 31.1587 65.3158 31.4239 65.2992 31.6887V35.422C65.2992 35.5317 65.3983 35.681 65.5966 35.8723C65.7948 36.0637 65.9398 36.1593 66.0341 36.1593H66.4596V36.6797H62.8333V36.1593L63.2298 36.1827ZM58.4988 17.0493C58.3806 16.8708 58.2318 16.713 58.0588 16.5827C57.817 16.382 57.6575 16.2817 57.5753 16.2817H57.2634V15.745H61.0879V16.2653H60.6358C60.5416 16.2653 60.4183 16.3563 60.2684 16.5383C60.1417 16.6656 60.0618 16.8296 60.0411 17.005L61.7334 20.3673L63.2927 17.0307C63.2935 16.939 63.2751 16.8481 63.2385 16.7635C63.2019 16.6789 63.148 16.6023 63.0799 16.5383C62.9188 16.3563 62.7906 16.2653 62.6956 16.2653H62.229V15.745H65.0913V16.2653H64.7794C64.6852 16.2653 64.5377 16.361 64.3395 16.5523C64.1839 16.6888 64.0546 16.8507 63.9575 17.0307L61.54 21.9797L59.4609 25.8367L58.8445 25.5333L60.996 21.786L58.4988 17.0493ZM71.3333 29.71C71.7284 29.695 72.1212 29.7744 72.4768 29.9413C72.8323 30.1082 73.1396 30.3574 73.3713 30.6667C73.8891 31.4071 74.1436 32.2898 74.0965 33.182C74.1346 34.1211 73.8451 35.0454 73.2746 35.807C73.0392 36.1318 72.7253 36.3964 72.36 36.5777C71.9948 36.7591 71.5893 36.8517 71.1786 36.8477C70.6592 36.873 70.1432 36.754 69.6918 36.5047C69.2926 36.2439 68.9662 35.8921 68.7417 35.4803V38.761C68.7417 38.8893 68.8457 39.0433 69.0536 39.2277C69.2615 39.412 69.4138 39.5007 69.5081 39.5007H69.965V40H66.2324V39.4797H66.6869C66.87 39.4424 67.0345 39.3461 67.1534 39.2067C67.3112 39.0939 67.4177 38.9267 67.4508 38.74V31.1123C67.4508 31.005 67.3517 30.858 67.1534 30.676C67.0345 30.5365 66.87 30.4402 66.6869 30.403H66.2324V29.8547H68.5266L68.7538 31.278C69.012 30.7981 69.3859 30.3851 69.8441 30.074C70.2909 29.8083 70.8088 29.6752 71.3333 29.6913V29.71ZM72.75 34.3043V34.33L72.8056 33.784C72.8249 33.6026 72.8346 33.4204 72.8346 33.238C72.8349 33.0781 72.8252 32.9184 72.8056 32.7597C72.7862 32.6033 72.7669 32.454 72.75 32.307C72.7036 31.8284 72.5052 31.3753 72.1819 31.0097C72.0268 30.8528 71.8386 30.7299 71.6301 30.6494C71.4215 30.5689 71.1975 30.5326 70.9731 30.543C70.7117 30.5324 70.4508 30.5741 70.207 30.6657C69.9632 30.7573 69.7417 30.8966 69.5564 31.075C69.1871 31.4499 68.9153 31.9042 68.7635 32.4003V34.1783C68.7606 34.4334 68.8119 34.6863 68.9141 34.9214C69.0164 35.1566 69.1676 35.3691 69.3582 35.5457C69.5464 35.7321 69.7723 35.8792 70.0218 35.9779C70.2713 36.0766 70.5391 36.1249 70.8087 36.1197H70.8377C71.089 36.1382 71.3413 36.1024 71.5764 36.0148C71.8114 35.9272 72.0232 35.79 72.1964 35.6133C72.5133 35.2336 72.706 34.7714 72.75 34.2857V34.3043ZM88.7563 35.4523C88.7563 35.562 88.8603 35.7113 89.0682 35.9027C89.2761 36.094 89.426 36.1897 89.5202 36.1897H89.9457V36.71H86.2348V36.1897H86.6458C86.7425 36.1897 86.8876 36.094 87.1003 35.9027C87.313 35.7113 87.4122 35.562 87.4122 35.4523V31.7423C87.4221 31.4435 87.3276 31.1501 87.1438 30.9093C87.0431 30.7916 86.9145 30.699 86.769 30.6393C86.6234 30.5796 86.4651 30.5546 86.3074 30.5663C85.7452 30.5841 85.2037 30.7754 84.7626 31.1123C84.242 31.4794 83.9825 31.7711 83.9841 31.9873V35.4337C83.9841 35.562 84.0881 35.716 84.296 35.9003C84.4219 36.0399 84.5918 36.1358 84.7795 36.1733H85.1953V36.6937H79.1805L78.9823 35.2727C78.6843 35.6507 78.3527 36.0028 77.9911 36.325C77.6233 36.6588 77.1348 36.8405 76.6301 36.8313C76.3922 36.833 76.1565 36.7877 75.9374 36.6982C75.7183 36.6087 75.5205 36.477 75.356 36.311C75.1761 36.1352 75.0355 35.9256 74.9428 35.6952C74.85 35.4649 74.8072 35.2186 74.8169 34.9717C74.7899 34.6817 74.8487 34.3903 74.9865 34.1313C75.1243 33.8723 75.3354 33.6564 75.5954 33.5087C76.0691 33.2441 76.5795 33.0461 77.1112 32.9207L78.9533 32.5637L78.9823 31.7447C79.0036 31.3319 78.8619 30.9266 78.5858 30.6107C78.402 30.4525 78.186 30.333 77.9517 30.2599C77.7173 30.1868 77.4698 30.1616 77.2248 30.186C76.9871 30.1584 76.7461 30.1948 76.5286 30.2912C76.311 30.3876 76.1252 30.5401 75.9919 30.732C75.8858 30.9577 75.8371 31.2046 75.8497 31.4521C75.8623 31.6997 75.9359 31.9407 76.0644 32.1553H75.5543L74.5873 30.788C74.9745 30.4204 75.436 30.1335 75.9429 29.9453C76.4499 29.757 76.9915 29.6714 77.5342 29.6937C78.2279 29.6708 78.9117 29.8576 79.49 30.228C79.7477 30.3988 79.9558 30.6304 80.0946 30.9008C80.2334 31.1711 80.2983 31.4713 80.2829 31.7727V35.436C80.2829 35.5457 80.3869 35.6903 80.5948 35.8723C80.8027 36.0543 80.9526 36.1477 81.0469 36.1477H81.8978C82.0861 36.11 82.2561 36.0131 82.3813 35.8723C82.5892 35.6903 82.6932 35.5457 82.6932 35.436V31.1123C82.6932 31.005 82.5892 30.858 82.3813 30.676C82.2554 30.5365 82.0856 30.4406 81.8978 30.403H81.4723V29.8547H83.711L83.9938 31.278C84.3725 30.8891 84.7763 30.5236 85.2026 30.1837C85.649 29.8572 86.1999 29.6921 86.7594 29.717C87.0192 29.7125 87.2772 29.7585 87.5181 29.8523C87.759 29.9461 87.9778 30.0858 88.1616 30.263C88.3559 30.4481 88.5081 30.6703 88.6084 30.9154C88.7087 31.1604 88.755 31.423 88.7442 31.6863L88.7563 35.4523ZM78.9823 33.028L77.2901 33.4387C76.9267 33.4957 76.5955 33.6741 76.3545 33.9427C76.1792 34.1877 76.0894 34.4803 76.0982 34.778V34.8037C76.0961 34.9429 76.1225 35.0813 76.176 35.2106C76.2296 35.34 76.3091 35.4578 76.4101 35.5573C76.5078 35.6586 76.6266 35.7388 76.7586 35.7927C76.8907 35.8466 77.0331 35.8729 77.1764 35.87H77.2175C77.5971 35.8552 77.9587 35.7105 78.2377 35.4617C78.5252 35.2397 78.7706 34.9713 78.963 34.6683L78.9823 33.028ZM97 29.8827V30.403H96.6591C96.5842 30.403 96.4464 30.4987 96.2482 30.69C96.098 30.8284 95.9605 30.9791 95.8372 31.1403L93.4584 36.1173L91.3334 39.9463L90.7387 39.6453L92.8636 35.898L90.3712 31.1683C90.2522 30.9904 90.1036 30.8327 89.9312 30.7017C89.6895 30.501 89.5396 30.4007 89.4646 30.4007H89.1238V29.8827H92.9483V30.403H92.5228C92.4285 30.403 92.3004 30.494 92.1408 30.676C92.008 30.8008 91.9228 30.9653 91.8991 31.1427L93.5913 34.5073L95.1579 31.1333C95.158 31.0455 95.1392 30.9587 95.1026 30.8783C95.066 30.7979 95.0123 30.7258 94.9451 30.6667C94.7856 30.4847 94.6574 30.3937 94.5632 30.3937H94.1111V29.8827H97Z" fill="#B9B8C8"/>
</svg>
