<svg width="60" height="48" viewBox="0 0 60 48" fill="none" xmlns="http://www.w3.org/2000/svg">
<path d="M12.8823 17.4998C12.7545 17.6517 12.6822 17.8212 12.6822 18.1161V26.2226H12.6363C12.6363 26.2226 8.109 18.3122 7.89016 17.9465C7.73522 17.6871 7.56221 17.5087 7.33433 17.3745C7.10645 17.2499 6.86952 17.1696 6.4144 17.1696H4.92057C4.57391 17.1696 4.35571 17.2853 4.20077 17.4644C4.07295 17.6156 4 17.7858 4 18.08V29.5708C4 29.8656 4.07295 30.0352 4.20077 30.187C4.35571 30.3654 4.57391 30.4812 4.92057 30.4812H5.76755C6.11357 30.4812 6.33242 30.3654 6.48735 30.187C6.61452 30.0352 6.68748 29.8656 6.68748 29.5708V21.2674H6.73331C6.73331 21.2674 11.4336 29.4278 11.6254 29.7315C11.8894 30.1598 12.3355 30.4812 12.9733 30.4812H14.422C14.768 30.4812 14.9868 30.3654 15.1418 30.187C15.2689 30.0352 15.3419 29.8656 15.3419 29.5708V19.2049H34.3724C34.5641 19.2049 34.7094 19.1518 34.8191 19.0625C34.9373 18.955 34.9921 18.812 34.9921 18.5982V17.8124C34.9921 17.5979 34.9373 17.4549 34.8191 17.348C34.7094 17.2588 34.5641 17.205 34.3724 17.205H13.6021C13.2561 17.205 13.0372 17.3214 12.8823 17.4998V17.4998ZM21.1907 20.5709C18.0294 20.5709 16.2528 22.9909 16.2528 25.5444C16.2528 28.2674 18.1572 30.6603 21.2087 30.6603C22.7303 30.6603 24.2242 30.0978 25.0802 29.1064C25.454 28.6781 25.7548 28.0795 25.7548 27.7138C25.7548 27.5886 25.727 27.4817 25.6547 27.4013C25.5818 27.3121 25.472 27.2583 25.2809 27.2583H23.8142C23.5224 27.2583 23.3223 27.3652 23.1764 27.5797C22.7484 28.196 22.1287 28.5174 21.2178 28.5174C19.8511 28.5174 18.968 27.4994 18.9041 26.3833H25.2448C25.5269 26.3833 25.727 26.3207 25.8639 26.1872C26.0188 26.0442 26.0918 25.8386 26.0918 25.4545C26.0918 24.2853 25.718 23.0712 24.9349 22.1424C24.1331 21.2048 22.9124 20.5709 21.1907 20.5709V20.5709ZM30.9651 20.5709C28.4694 20.5709 26.8296 21.7318 26.8296 23.5888C26.8296 24.2493 27.0756 24.7852 27.4765 25.2046C27.9413 25.6962 28.6062 26.0353 29.572 26.2764L31.6578 26.7939C32.2317 26.9369 32.7417 27.1065 32.7417 27.5974C32.7417 28.3566 31.9218 28.6154 31.0477 28.6154C30.6191 28.6154 30.173 28.5351 29.8083 28.3567C29.5533 28.2314 29.3351 28.053 29.1801 27.8119C29.0433 27.6063 28.9981 27.4544 28.7883 27.3387C28.6605 27.2672 28.5055 27.2583 28.2964 27.2583H27.1666C26.9207 27.2583 26.8025 27.3298 26.7205 27.4279C26.6386 27.5259 26.6108 27.6689 26.6108 27.8119C26.6108 28.1687 26.7386 28.6154 27.0395 29.0172C27.7315 29.9276 29.1801 30.6603 31.029 30.6603C32.8515 30.6603 35.3749 29.9187 35.3749 27.5259C35.3749 26.9103 35.1923 26.3833 34.8553 25.955C34.4273 25.4102 33.8172 25.0351 32.7785 24.7763L30.7108 24.2581C29.8541 24.0443 29.4532 23.8924 29.4532 23.3743C29.4532 22.8745 29.909 22.4727 30.9651 22.4727C31.5849 22.4727 32.1497 22.6068 32.5145 22.982C32.8147 23.2946 32.7604 23.4553 32.9973 23.5799C33.1426 23.6514 33.3066 23.6514 33.5622 23.6514H34.5912C34.7552 23.6514 34.874 23.6248 34.9644 23.5261C35.038 23.4458 35.0832 23.3211 35.0832 23.1155C35.0832 22.6511 34.7733 22.0532 34.2271 21.5977C33.4983 20.9815 32.3505 20.5709 30.9651 20.5709V20.5709ZM36.6409 20.9106H36.1309C35.9398 20.9106 35.7939 20.9638 35.6848 21.053C35.566 21.1605 35.5112 21.3035 35.5112 21.5174V22.1336C35.5112 22.3481 35.566 22.4904 35.6848 22.598C35.7939 22.6872 35.9398 22.741 36.1309 22.741H36.6409V27.1957C36.6409 28.3383 36.9598 29.0526 37.5518 29.6245C38.0986 30.1509 38.8093 30.4812 40.0482 30.4812H40.8222C41.0139 30.4812 41.1592 30.4281 41.2689 30.3388C41.3871 30.2313 41.46 30.0883 41.46 29.8745V29.0975C41.46 28.883 41.3871 28.7407 41.2689 28.6331C41.1592 28.5439 41.0139 28.4901 40.8222 28.4901H40.7131C40.2212 28.4901 39.8842 28.3655 39.6563 28.151C39.3832 27.9011 39.2464 27.5171 39.2464 27.0173V22.741H40.9048C41.0959 22.741 41.2418 22.6872 41.3509 22.598C41.469 22.4904 41.5239 22.3481 41.5239 22.1336V21.5174C41.5239 21.3035 41.469 21.1605 41.3509 21.053C41.2418 20.9638 41.0959 20.9106 40.9048 20.9106H39.2554V17.9996C39.2554 17.7675 39.1825 17.5979 39.0734 17.4644C38.9365 17.3037 38.7454 17.205 38.4633 17.205H37.4336C37.1509 17.205 36.9598 17.3037 36.8229 17.4644C36.7138 17.5979 36.6409 17.7675 36.6409 17.9996V20.9106ZM42.2166 29.6866C42.2166 29.9187 42.2889 30.0883 42.3987 30.2224C42.5349 30.3831 42.7266 30.4812 43.0087 30.4812H44.0926C44.3754 30.4812 44.5665 30.3831 44.7033 30.2224C44.8124 30.0883 44.8854 29.9187 44.8854 29.6866V18.0003C44.8854 17.7681 44.8124 17.5985 44.7033 17.4644C44.5665 17.3037 44.3754 17.205 44.0926 17.205H43.0087C42.7266 17.205 42.5349 17.3037 42.3987 17.4644C42.2889 17.5985 42.2166 17.7681 42.2166 18.0003V29.6866ZM18.9222 24.4815C19.0403 23.3831 19.897 22.5619 21.1997 22.5619C22.4753 22.5619 23.3585 23.3831 23.4772 24.4815H18.9222ZM54.7515 19.2049C54.9426 19.2049 55.0885 19.1518 55.1976 19.0625C55.3163 18.955 55.3712 18.812 55.3712 18.5982V17.7674C55.3712 17.446 55.3073 17.2853 55.1976 17.1696C55.0975 17.062 54.9335 17 54.7515 17C54.6056 17 54.4603 17.0177 54.2144 17.0443L46.9441 17.7497C46.7349 17.7675 46.6348 17.8301 46.5619 17.9104C46.4799 17.9996 46.4431 18.116 46.4431 18.2767V18.7405C46.4431 18.9196 46.4799 18.9999 46.5438 19.0714C46.6252 19.1606 46.7439 19.2049 46.9079 19.2049H54.7515ZM50.7342 20.5709C47.5728 20.5709 45.7962 22.9909 45.7962 25.5444C45.7962 28.2674 47.7007 30.6603 50.7522 30.6603C52.2738 30.6603 53.7676 30.0978 54.6237 29.1064C54.9974 28.6781 55.2983 28.0795 55.2983 27.7138C55.2983 27.5886 55.2705 27.4817 55.1976 27.4013C55.1253 27.3121 55.0155 27.2583 54.8244 27.2583H53.3577C53.0659 27.2583 52.8658 27.3652 52.7199 27.5797C52.2919 28.196 51.6722 28.5174 50.7613 28.5174C49.3946 28.5174 48.5108 27.4994 48.4476 26.3833H54.8064C55.0885 26.3833 55.2892 26.3207 55.4255 26.1872C55.5804 26.0442 55.6533 25.8386 55.6533 25.4545C55.6533 24.2853 55.2795 23.0712 54.4965 22.1424C53.6947 21.2048 52.4559 20.5709 50.7342 20.5709V20.5709ZM48.4656 24.4815C48.5844 23.3831 49.4404 22.5619 50.7432 22.5619C52.0188 22.5619 52.9019 23.3831 53.0207 24.4815H48.4656V24.4815Z" fill="#B9B8C8"/>
</svg>
