<svg width="124" height="48" viewBox="0 0 124 48" fill="none" xmlns="http://www.w3.org/2000/svg">
<path d="M16.8046 30.5405C17.0734 30.5405 17.3294 30.475 17.5726 30.3308L20.3759 28.6794C20.9391 28.3517 21.5919 28.2076 22.2448 28.2862C25.6497 28.6925 28.0306 29.3478 28.7346 29.5575C28.8754 29.5969 29.0418 29.5444 29.1314 29.4265C29.2466 29.2823 29.3874 29.0464 29.5026 28.7056C29.605 28.378 29.6178 28.1027 29.605 27.9061C29.5922 27.7488 29.4898 27.6047 29.3362 27.5653C28.2354 27.2377 23.3584 25.8877 16.8046 25.8877C10.2507 25.8877 5.37375 27.2377 4.27291 27.5653C4.1193 27.6047 4.0169 27.7488 4.0041 27.9061C3.9913 28.0896 4.0041 28.3648 4.1065 28.7056C4.2089 29.0464 4.36251 29.2823 4.47771 29.4265C4.56732 29.5444 4.73372 29.5969 4.87453 29.5575C5.57855 29.3478 7.97224 28.6925 11.3644 28.2862C12.0172 28.2076 12.67 28.3517 13.2332 28.6794L16.0365 30.3308C16.2797 30.475 16.5486 30.5405 16.8046 30.5405Z" fill="#B9B8C8"/>
<path d="M12.1326 21.2479C12.2862 21.5232 12.5294 21.7067 12.811 21.7853C13.0926 21.864 13.387 21.8246 13.6559 21.6674C13.9247 21.5101 14.1039 21.2611 14.1807 20.9727C14.2575 20.6844 14.2191 20.3829 14.0655 20.1077L11.5438 15.6383C11.467 15.4941 11.3006 15.4417 11.147 15.4548C10.9422 15.4679 10.6605 15.5728 10.3277 15.7694C9.99492 15.966 9.76451 16.1626 9.64931 16.333C9.5597 16.464 9.5341 16.6344 9.61091 16.7786L12.1326 21.2479Z" fill="#B9B8C8"/>
<path d="M9.82898 24.446C10.0978 24.6033 10.405 24.6295 10.6738 24.5639C10.9554 24.4853 11.1986 24.3018 11.3522 24.0266C11.5058 23.7513 11.5314 23.4368 11.4674 23.1615C11.4034 22.8863 11.2114 22.6242 10.9426 22.4669L6.57766 19.8849C6.43685 19.8062 6.27045 19.8325 6.14244 19.9242C5.97604 20.0422 5.78403 20.2781 5.59202 20.6189C5.40002 20.9596 5.29761 21.248 5.28481 21.4577C5.27201 21.6281 5.33601 21.7853 5.46402 21.864L9.82898 24.446Z" fill="#B9B8C8"/>
<path d="M17.9187 19.6621C17.9187 19.9766 17.7907 20.265 17.5987 20.4747C17.3939 20.6844 17.1251 20.8023 16.805 20.8023C16.4978 20.8023 16.2162 20.6713 16.0114 20.4747C15.8066 20.265 15.6914 19.9897 15.6914 19.6621V14.5112C15.6914 14.3408 15.7938 14.2097 15.9474 14.1442C16.1266 14.0524 16.421 14 16.805 14C17.1891 14 17.4835 14.0524 17.6627 14.1442C17.8035 14.2228 17.9187 14.3408 17.9187 14.5112V19.6621Z" fill="#B9B8C8"/>
<path d="M21.4771 21.2479C21.3235 21.5232 21.0803 21.7067 20.7987 21.7853C20.5171 21.864 20.2227 21.8246 19.9538 21.6674C19.685 21.5101 19.5058 21.2611 19.429 20.9727C19.3522 20.6844 19.3906 20.3829 19.5442 20.1077L22.0659 15.6383C22.1427 15.4941 22.3091 15.4417 22.4627 15.4548C22.6675 15.4679 22.9492 15.5728 23.282 15.7694C23.6148 15.966 23.8452 16.1626 23.9604 16.333C24.05 16.464 24.0756 16.6344 23.9988 16.7786L21.4771 21.2479Z" fill="#B9B8C8"/>
<path d="M23.7805 24.446C23.5117 24.6033 23.2045 24.6295 22.9357 24.5639C22.6541 24.4853 22.4109 24.3018 22.2573 24.0266C22.1037 23.7513 22.0781 23.4368 22.1421 23.1615C22.2189 22.8732 22.3981 22.6242 22.6669 22.4669L27.0319 19.8849C27.1727 19.8062 27.3391 19.8325 27.4671 19.9242C27.6335 20.0422 27.8255 20.2781 28.0175 20.6189C28.2095 20.9596 28.3119 21.248 28.3247 21.4577C28.3375 21.6281 28.2735 21.7853 28.1455 21.864L23.7805 24.446Z" fill="#B9B8C8"/>
<path d="M51.6213 20.8941H53.7205C53.7973 20.8941 53.8613 20.9465 53.8997 21.0121L55.9862 26.4906L58.0087 21.0121C58.0343 20.9334 58.1111 20.8941 58.1879 20.8941H60.2488C60.3896 20.8941 60.4792 21.0383 60.4152 21.1562L55.295 33.1881C55.2694 33.2536 55.1926 33.3061 55.1286 33.3061H53.3109C53.1829 33.3061 53.0805 33.1619 53.1445 33.0439L54.8982 28.8367L51.4677 21.1562C51.3909 21.0383 51.4805 20.8941 51.6213 20.8941Z" fill="#B9B8C8"/>
<path d="M82.6107 22.113V21.0907C82.6107 20.9858 82.7003 20.8941 82.8027 20.8941H84.6587C84.7611 20.8941 84.8507 20.9858 84.8507 21.0907V29.2561C84.8507 29.361 84.7611 29.4527 84.6587 29.4527H82.8027C82.7003 29.4527 82.6107 29.361 82.6107 29.2561V28.1814C82.2138 28.8105 81.3434 29.6362 79.9225 29.6362C77.2088 29.6362 75.8008 27.5129 75.8008 25.1406C75.8008 22.0475 77.9001 20.7237 79.8585 20.7237C81.1514 20.7106 82.0474 21.3397 82.6107 22.113ZM78.0409 25.1537C78.0409 26.6217 78.9241 27.7489 80.345 27.7489C81.7658 27.7489 82.6747 26.7659 82.6747 25.2586C82.6747 23.7513 81.7914 22.598 80.281 22.598C78.8601 22.598 78.0409 23.7251 78.0409 25.1537Z" fill="#B9B8C8"/>
<path d="M86.5273 29.2561V21.0907C86.5273 20.9858 86.6169 20.8941 86.7194 20.8941H88.5754C88.6778 20.8941 88.7674 20.9858 88.7674 21.0907V22.2047C89.2026 21.4314 90.0219 20.7237 91.4171 20.7237C92.8508 20.7237 94.4508 21.4446 94.4508 24.7605V29.2561C94.4508 29.361 94.3612 29.4527 94.2588 29.4527H92.4028C92.3004 29.4527 92.2108 29.361 92.2108 29.2561V24.7999C92.2108 24.0003 92.0187 22.6242 90.6363 22.6242C89.2538 22.6242 88.7674 23.8693 88.7674 25.0227V29.2561C88.7674 29.361 88.6778 29.4527 88.5754 29.4527H86.7194C86.6041 29.4396 86.5273 29.361 86.5273 29.2561Z" fill="#B9B8C8"/>
<path d="M96.0391 29.2561V21.0907C96.0391 20.9858 96.1287 20.8941 96.2311 20.8941H98.0871C98.1895 20.8941 98.2791 20.9858 98.2791 21.0907V22.2047C98.7144 21.4314 99.5336 20.7237 100.929 20.7237C102.362 20.7237 103.963 21.4446 103.963 24.7605V29.2561C103.963 29.361 103.873 29.4527 103.771 29.4527H101.914C101.812 29.4527 101.722 29.361 101.722 29.2561V24.7999C101.722 24.0003 101.53 22.6242 100.148 22.6242C98.7656 22.6242 98.2791 23.8693 98.2791 25.0227V29.2561C98.2791 29.361 98.1895 29.4527 98.0871 29.4527H96.2311C96.1287 29.4396 96.0391 29.361 96.0391 29.2561Z" fill="#B9B8C8"/>
<path d="M115.534 20.8941H117.339C117.441 20.8941 117.531 20.9858 117.531 21.0907V22.7814C117.889 21.1038 119.297 20.5271 120.321 20.7761C120.411 20.7892 120.462 20.8679 120.462 20.9596V22.8208C120.462 22.9387 120.36 23.0305 120.232 23.0042C118.337 22.6242 117.569 23.6727 117.569 25.1406C117.569 26.1892 117.569 28.5615 117.569 29.2561C117.569 29.361 117.48 29.4527 117.377 29.4527H115.521C115.419 29.4527 115.329 29.361 115.329 29.2561V21.0907C115.342 20.9858 115.432 20.8941 115.534 20.8941Z" fill="#B9B8C8"/>
<path d="M39.3199 22.7552C38.7439 22.5586 38.4367 22.4407 37.9758 22.2834C37.5022 22.113 36.6958 21.6412 36.6958 20.881C36.6958 20.1208 37.2078 19.6359 38.2447 19.6359C39.1919 19.6359 39.7167 20.1077 40.0623 20.8679C40.1135 20.9727 40.2287 21.0121 40.3311 20.9596L41.8544 20.0553C41.9312 20.0028 41.9696 19.898 41.9312 19.8062C41.4704 18.7708 40.3951 17.5257 38.2703 17.5257C35.9022 17.5257 34.4173 18.9674 34.4173 20.8679C34.4173 22.7552 35.6334 23.7382 37.2846 24.3149C37.8862 24.5246 38.1295 24.6164 38.6415 24.7868C39.6143 25.1275 40.0623 25.5732 40.0623 26.1892C40.0623 26.8052 39.6783 27.5392 38.1679 27.5392C36.7854 27.5392 36.299 26.7921 36.0174 26.0843C35.979 25.9795 35.851 25.927 35.7486 25.9926L34.1485 26.9362C34.0717 26.9887 34.0333 27.0804 34.0717 27.1722C34.6861 28.7187 36.363 29.6362 38.2447 29.6362C40.4591 29.6362 42.328 28.4828 42.328 26.1499C42.328 23.8169 39.8959 22.9518 39.3199 22.7552Z" fill="#B9B8C8"/>
<path d="M51.5443 27.2115C51.4931 27.1197 51.3651 27.0804 51.2755 27.1459C50.5587 27.6833 49.7139 27.6964 49.0739 26.6872C48.5362 25.8353 47.8834 24.7868 47.8834 24.7868L50.6995 21.2086C50.8019 21.0776 50.7123 20.8941 50.5587 20.8941H48.357C48.293 20.8941 48.2418 20.9203 48.2034 20.9727L45.7713 24.3936V17.5126C45.7713 17.4077 45.6817 17.316 45.5793 17.316H43.7233C43.6209 17.316 43.5312 17.4077 43.5312 17.5126V29.2561C43.5312 29.361 43.6209 29.4527 43.7233 29.4527H45.5921C45.6945 29.4527 45.7841 29.361 45.7841 29.2561V25.4421C45.7841 25.4421 47.0258 27.4474 47.4994 28.1945C48.1394 29.2168 49.0355 29.6362 50.0083 29.6362C50.9299 29.6362 51.5187 29.3872 52.2228 28.6794C52.2868 28.6139 52.2996 28.5221 52.2612 28.4435L51.5443 27.2115Z" fill="#B9B8C8"/>
<path d="M64.8689 24.5115C64.2801 24.2887 64.0753 24.2101 63.6273 24.0397C63.1793 23.8693 62.7824 23.6203 62.7824 23.2533C62.7824 22.8863 63.1152 22.48 63.7937 22.48C64.3825 22.48 64.7409 22.7159 64.9457 23.1353C64.9969 23.2402 65.1121 23.2664 65.2017 23.214L66.5074 22.4407C66.597 22.3882 66.6226 22.2703 66.5714 22.1785C66.213 21.5363 65.5089 20.7237 63.8065 20.7237C61.72 20.7237 60.6448 21.9557 60.6448 23.3188C60.6448 24.6819 61.7328 25.3241 62.7312 25.7304C63.8577 26.2023 63.9345 26.2285 64.0753 26.2809C64.4209 26.4251 64.8433 26.6479 64.8433 27.0542C64.8433 27.4605 64.3825 27.8275 63.6785 27.8275C63.0256 27.8275 62.2832 27.5522 61.976 26.779C61.9376 26.6741 61.8096 26.6217 61.7072 26.6872L60.3887 27.4605C60.3119 27.5129 60.2735 27.6047 60.3119 27.6964C60.696 28.7187 61.8352 29.6231 63.6785 29.6231C65.6753 29.6231 67.0066 28.5352 67.0066 27.0018C67.0066 25.4683 65.9826 24.9309 64.8689 24.5115Z" fill="#B9B8C8"/>
<path d="M72.3714 22.7552C73.2034 22.7552 73.8178 23.0173 74.3938 23.4367C74.4834 23.5023 74.6114 23.4761 74.6626 23.3843L75.4307 22.0212C75.4819 21.9295 75.4563 21.8246 75.3667 21.7722C74.573 21.2217 73.5874 20.7106 72.2562 20.7106C70.9377 20.7106 69.7217 21.0776 68.8512 21.9819C67.9808 22.8732 67.584 23.9348 67.584 25.193C67.584 26.7134 68.1984 27.6833 68.864 28.3648C69.5297 29.0464 70.7329 29.6231 72.269 29.6231C73.6514 29.6231 74.6755 29.0333 75.3795 28.5614C75.4563 28.509 75.4819 28.3911 75.4307 28.3124L74.6755 26.9624C74.6242 26.8707 74.4962 26.8314 74.4066 26.8969C73.9074 27.2639 73.1906 27.5784 72.3842 27.5784C71.4753 27.5784 69.8241 27.0542 69.8241 25.1668C69.8241 23.2795 71.4625 22.7552 72.3714 22.7552Z" fill="#B9B8C8"/>
<path d="M110.03 27.7357C109.287 27.7357 108.583 27.5522 108.071 27.1328C107.559 26.7134 107.316 26.2809 107.316 25.7697H113.947C114.049 25.7697 114.139 25.678 114.139 25.5731C114.1 23.5547 113.46 22.611 112.846 21.9688C112.206 21.3135 111.118 20.7106 109.684 20.7106C108.251 20.7106 107.15 21.2479 106.395 22.0081C105.652 22.7683 105.089 23.7382 105.089 25.2061C105.089 26.6741 105.665 27.644 106.369 28.3648C107.073 29.0857 108.225 29.6231 109.876 29.6231C111.438 29.6231 112.756 29.0595 113.704 27.9454C113.78 27.8537 113.755 27.7095 113.652 27.6571L112.334 26.8707C112.27 26.8314 112.18 26.8314 112.116 26.8969C111.464 27.526 110.631 27.7357 110.03 27.7357ZM109.671 22.5455C110.734 22.5455 111.707 23.2008 111.86 24.3804H107.393C107.687 23.1091 108.609 22.5455 109.671 22.5455Z" fill="#B9B8C8"/>
</svg>
