<svg width="64" height="48" viewBox="0 0 64 48" fill="none" xmlns="http://www.w3.org/2000/svg">
<path d="M62.6605 22.9789C62.6605 19.4688 60.2055 17 56.7636 17C52.382 17 49.4453 20.1708 49.4453 24.6989C49.4453 28.2325 51.9239 30.6778 55.4245 30.6778C58.6079 30.6778 60.9807 29.1451 61.9557 26.6997H58.4199C57.9501 27.4602 56.9516 27.9399 55.7299 27.9399C53.8504 27.9399 52.6757 26.6997 52.57 24.9446H62.4609C62.5901 24.2777 62.6605 23.7044 62.6605 22.9789ZM52.8402 22.5694C53.1573 20.9548 54.7314 19.6677 56.6344 19.6677C58.279 19.6677 59.5241 20.8612 59.5241 22.5694H52.8402Z" fill="#B9B8C8"/>
<path d="M39.9424 30.3619L40.5767 26.9922C42.5149 27.3783 42.8086 26.2902 43.3137 23.6693L43.5604 22.3705C44.2652 18.7083 45.6866 16.883 49.751 17.3744L49.1167 20.7442C47.1785 20.358 46.8378 21.8206 46.4032 24.0905L46.1565 25.3892C45.4517 29.0983 43.9833 30.8534 39.9424 30.3619Z" fill="#B9B8C8"/>
<path d="M35.1973 30.3736L37.5936 17.3159H40.7535L38.3689 30.3736H35.1973Z" fill="#B9B8C8"/>
<path d="M17.0947 17.3159H20.1607L21.1591 26.7582L25.1766 17.3159H28.219L29.288 26.8518L33.1645 17.3159H36.2186L30.6624 30.3736H27.1853L26.0576 21.3877L22.2164 30.3736H18.8568L17.0947 17.3159Z" fill="#B9B8C8"/>
<path d="M5.64153 20.7793L2 24.2426H8.1906L8.83668 22.7332H5.70027L7.66199 20.7793L6.52255 18.8253H11.8439L6.93369 30.3736H8.77795L14.3342 17.3159H3.59757L5.64153 20.7793Z" fill="#B9B8C8"/>
</svg>
