<svg width="56" height="48" viewBox="0 0 56 48" fill="none" xmlns="http://www.w3.org/2000/svg">
<path d="M33.4036 20.8417H32.0576C32.0299 20.7303 32.0093 20.6012 31.9956 20.4546C31.9682 20.1692 31.9682 19.8819 31.9956 19.5965C32.0093 19.4502 32.0299 19.3212 32.0576 19.2092H35.412V29.9464C35.2441 29.9759 35.0748 29.9968 34.9048 30.0088C34.7359 30.0219 34.5666 30.0289 34.3972 30.0296C34.2349 30.0285 34.0727 30.0216 33.9109 30.0088C33.741 29.9967 33.5717 29.9757 33.4039 29.9461V20.8413V20.8415L33.4036 20.8417ZM45.0813 23.5419C45.0813 23.1511 45.0294 22.7779 44.9262 22.4218C44.8225 22.0663 44.6702 21.7559 44.4706 21.4906C44.2701 21.2258 44.0149 21.0128 43.7043 20.8524C43.3938 20.6919 43.0244 20.6116 42.5965 20.6116C41.7546 20.6116 41.1091 20.8701 40.6606 21.3861C40.212 21.9023 39.9395 22.6209 39.8427 23.5419H45.0814H45.0813ZM39.8221 25.0906C39.8498 26.2627 40.15 27.121 40.7228 27.6648C41.2954 28.2089 42.1411 28.4814 43.2592 28.4814C44.239 28.4814 45.1708 28.3068 46.0543 27.958C46.1644 28.1672 46.254 28.4219 46.3232 28.7219C46.391 29.014 46.4325 29.3117 46.4474 29.6114C45.9921 29.8072 45.4914 29.9531 44.9465 30.051C44.4009 30.1484 43.7971 30.1975 43.1349 30.1975C42.1683 30.1975 41.3399 30.061 40.6501 29.7892C39.9598 29.5168 39.3904 29.1331 38.9418 28.638C38.4933 28.1428 38.1653 27.5567 37.9582 26.8798C37.7513 26.2033 37.6475 25.4602 37.6475 24.6509C37.6475 23.8556 37.7475 23.1124 37.9478 22.4216C38.1476 21.7313 38.4554 21.1312 38.869 20.6219C39.2833 20.1124 39.8043 19.708 40.4324 19.408C41.0602 19.108 41.8021 18.9578 42.6583 18.9578C43.3898 18.9578 44.0316 19.0835 44.5839 19.3346C45.1358 19.5857 45.5984 19.9311 45.9712 20.3706C46.3438 20.8103 46.6268 21.3335 46.8201 21.9402C47.0132 22.5474 47.1102 23.2065 47.1102 23.9183C47.1102 24.1138 47.1028 24.3194 47.0891 24.5356C47.0778 24.7206 47.064 24.9055 47.0478 25.0902H39.8217L39.8219 25.0905L39.8221 25.0906ZM49.3682 19.2092C49.5123 19.1827 49.6574 19.1618 49.803 19.1465C49.9407 19.1329 50.086 19.1258 50.2378 19.1258C50.3897 19.1258 50.5413 19.1329 50.6934 19.1465C50.8451 19.1607 50.9833 19.1817 51.1076 19.2092C51.1486 19.4186 51.1901 19.6944 51.2313 20.0359C51.2727 20.3778 51.2938 20.6671 51.2938 20.9045C51.5835 20.4302 51.9666 20.0183 52.4427 19.6694C52.9189 19.3209 53.5297 19.1462 54.275 19.1462C54.3854 19.1462 54.4992 19.1499 54.6166 19.1569C54.717 19.1623 54.8175 19.1726 54.9168 19.188C54.9443 19.3138 54.9654 19.4465 54.979 19.5858C54.9927 19.7252 54.9996 19.8718 54.9996 20.0252C54.9996 20.1928 54.9893 20.3674 54.9687 20.5484C54.9488 20.7233 54.9246 20.8977 54.8963 21.0715C54.7845 21.0437 54.6697 21.0296 54.5545 21.0297H54.2748C53.9022 21.0297 53.5466 21.0821 53.2085 21.1866C52.87 21.2914 52.5665 21.4763 52.2974 21.7412C52.0285 22.0064 51.8143 22.3693 51.6559 22.8298C51.4968 23.2903 51.4176 23.8833 51.4176 24.6087V29.9461C51.2497 29.9755 51.0804 29.9966 50.9103 30.0087C50.7242 30.0227 50.5549 30.0295 50.4032 30.0295C50.2339 30.0288 50.0646 30.0219 49.8958 30.0087C49.7189 29.9957 49.5427 29.9749 49.3677 29.9462V19.2093L49.3682 19.2092ZM34.8364 13.476C34.8364 13.7265 34.7917 13.975 34.7043 14.2094C34.4723 14.2977 34.2265 14.343 33.9786 14.343H33.9755C33.7276 14.343 33.4818 14.2978 33.2498 14.2095C33.1623 13.975 33.1174 13.7265 33.1175 13.4759V13.4726C33.1175 13.2144 33.1643 12.9671 33.2492 12.739C33.4813 12.6505 33.7272 12.6053 33.9752 12.6055H33.978C34.2335 12.6055 34.4781 12.6528 34.7038 12.739C34.7912 12.9735 34.836 13.222 34.8359 13.4726V13.4759H34.8362L34.8364 13.476ZM37.3664 12.8952H35.3602L36.7787 11.4612C36.5556 11.1446 36.2818 10.8679 35.9685 10.6425L34.5498 12.0764V10.0484C34.3611 10.0163 34.1702 10.0001 33.9789 10H33.9752C33.7806 10 33.59 10.0168 33.4042 10.0484V12.0764L31.9852 10.6424C31.8289 10.7548 31.6823 10.8803 31.5467 11.0175L31.5461 11.0181C31.4105 11.1552 31.2865 11.3035 31.1753 11.4614L32.5943 12.8952H30.5877C30.5877 12.8952 30.5399 13.2762 30.5399 13.4731V13.4755C30.5399 13.6725 30.5565 13.8655 30.5878 14.0534H32.5944L31.1752 15.4871C31.3984 15.8037 31.6723 16.0805 31.9855 16.3061L33.4043 14.8723V16.9004C33.5899 16.9319 33.7802 16.9485 33.9746 16.9487H33.9794C34.1705 16.9485 34.3612 16.9324 34.5497 16.9004V14.8723L35.9686 16.3064C36.1249 16.1939 36.2716 16.0684 36.4074 15.9313H36.4077C36.5432 15.7941 36.6671 15.6457 36.7783 15.4878L35.3599 14.0535H37.3665C37.3976 13.8657 37.414 13.6734 37.414 13.4769V13.4718C37.414 13.2786 37.398 13.0859 37.3665 12.8954V12.8952H37.3664ZM1 29.6535L6.59051 20.8627H1.66247C1.62122 20.6116 1.60059 20.3328 1.60059 20.0257C1.60059 19.7328 1.62154 19.4604 1.6629 19.2091H9.63438L9.73806 19.4817L4.10619 28.293H9.38588C9.42724 28.5722 9.44808 28.858 9.44808 29.1509C9.44808 29.4303 9.42735 29.6953 9.38598 29.9464H1.10368L1 29.6532V29.6535ZM17.1294 24.9021C16.9223 24.8745 16.66 24.8468 16.3426 24.8186C16.0251 24.7909 15.7559 24.7767 15.5354 24.7767C14.6794 24.7767 14.0272 24.9372 13.5789 25.2582C13.1299 25.5794 12.906 26.0675 12.906 26.7233C12.906 27.1418 12.9816 27.4698 13.1336 27.7069C13.2852 27.9444 13.4752 28.1254 13.703 28.2511C13.9308 28.3766 14.1825 28.4535 14.4584 28.4814C14.7344 28.5093 14.9968 28.5231 15.2452 28.5231C15.5627 28.5231 15.8905 28.5057 16.2288 28.4707C16.5668 28.4361 16.867 28.3836 17.1295 28.3139V24.9021H17.1294ZM17.1294 22.8722C17.1294 22.0486 16.9223 21.4765 16.5084 21.1556C16.0941 20.8346 15.4937 20.6741 14.7069 20.6741C14.2234 20.6741 13.7716 20.7128 13.3508 20.7894C12.9343 20.865 12.5228 20.9662 12.1185 21.0926C11.8561 20.6321 11.7254 20.0813 11.7254 19.4391C12.1941 19.2858 12.7116 19.1672 13.2779 19.0835C13.8438 18.9997 14.389 18.9578 14.9137 18.9578C16.294 18.9578 17.343 19.2754 18.0609 19.9103C18.7784 20.5456 19.1376 21.5606 19.1376 22.9557V29.6742C18.6542 29.7858 18.0678 29.9009 17.3777 30.0195C16.6799 30.1386 15.9734 30.1982 15.2657 30.1975C14.5894 30.1975 13.9784 30.1349 13.4334 30.0093C12.888 29.8834 12.4255 29.6815 12.046 29.4021C11.6661 29.1233 11.3732 28.7674 11.1658 28.3349C10.9589 27.9023 10.8553 27.3791 10.8553 26.7651C10.8553 26.1653 10.9761 25.6384 11.2177 25.1847C11.4551 24.7364 11.7917 24.3497 12.2013 24.0546C12.6154 23.755 13.0916 23.5314 13.63 23.3852C14.1684 23.2385 14.7341 23.1652 15.3277 23.1652C15.7694 23.1652 16.1318 23.1759 16.4148 23.1968C16.6976 23.2176 16.9358 23.242 17.1292 23.27V22.8723L17.1294 22.8722ZM23.4236 28.1879C23.685 28.2855 23.9556 28.3557 24.2312 28.3973C24.5073 28.4393 24.8658 28.4602 25.308 28.4602C25.8048 28.4602 26.2601 28.3801 26.6742 28.2196C27.0885 28.0595 27.4438 27.8116 27.7406 27.4765C28.0374 27.1418 28.2719 26.72 28.4445 26.2102C28.617 25.7012 28.7035 25.0979 28.7035 24.3999C28.7035 23.2837 28.4996 22.3977 28.0927 21.7418C27.6852 21.0861 27.0191 20.7582 26.0947 20.7582C25.7496 20.7582 25.418 20.8209 25.1011 20.9466C24.7831 21.0722 24.5004 21.2606 24.2519 21.5117C24.0035 21.7628 23.8033 22.0805 23.6516 22.4641C23.4993 22.8481 23.4237 23.3047 23.4237 23.835V28.1882V28.188L23.4236 28.1879ZM21.3738 19.209C21.5142 19.181 21.6556 19.1602 21.7982 19.1463C21.9462 19.1324 22.0948 19.1255 22.2435 19.1255C22.3811 19.1255 22.5259 19.1328 22.6781 19.1463C22.8297 19.1605 22.9747 19.1815 23.1129 19.2091C23.1265 19.2374 23.144 19.3242 23.1647 19.4709C23.1853 19.6175 23.206 19.7743 23.2268 19.9416C23.2476 20.1092 23.2682 20.27 23.2889 20.423C23.3097 20.5767 23.32 20.6745 23.32 20.7163C23.4577 20.4932 23.6235 20.2767 23.8168 20.0675C24.0102 19.8581 24.2416 19.6698 24.5107 19.5025C24.7799 19.3349 25.0834 19.2025 25.4217 19.1047C25.7598 19.0071 26.1359 18.9579 26.5501 18.9579C27.1711 18.9579 27.7475 19.0627 28.2792 19.2721C28.8103 19.4817 29.2655 19.8056 29.6454 20.2452C30.0248 20.6848 30.3215 21.243 30.5356 21.9195C30.7495 22.5968 30.8564 23.3955 30.8564 24.3163C30.8564 26.158 30.3628 27.599 29.3757 28.6383C28.3886 29.6779 26.9914 30.1975 25.1831 30.1975C24.8793 30.1975 24.5689 30.1765 24.2514 30.1347C23.9337 30.0927 23.6579 30.0368 23.4231 29.9674V34.8859C23.2482 34.9147 23.0721 34.9356 22.8954 34.9487C22.7089 34.9623 22.5396 34.9694 22.3878 34.9694C22.2185 34.9687 22.0494 34.9618 21.8806 34.9487C21.7106 34.9365 21.5413 34.9156 21.3734 34.8859V19.2091L21.3738 19.209Z" fill="#B9B8C8"/>
</svg>
